<svg xmlns="http://www.w3.org/2000/svg" viewBox="0 0 575.45 157.68"><defs><style>.cls-1{isolation:isolate;}.cls-2{fill:#fff;}</style></defs><title>Asset 5</title><g id="Layer_2" data-name="Layer 2"><g id="Layer_1-2" data-name="Layer 1"><g id="Heo_Text" data-name="Heo Text" class="cls-1"><g class="cls-1"><path class="cls-2" d="M132.59,55.47a23,23,0,0,1-23,23l-31-.33a7,7,0,0,1-6.89-7V7.51a7,7,0,0,1,7-7h24.37a23,23,0,0,1,19.07,35.72A22.93,22.93,0,0,1,132.59,55.47Zm-46.88-23h17.4a9,9,0,1,0,0-18H85.71Zm33,23a9,9,0,0,0-9-9H85.71V64.24l24,.26A9,9,0,0,0,118.66,55.47Z"/><path class="cls-2" d="M191.76,49.54l-34.95,8.78a15,15,0,0,0,25.69-1,7,7,0,0,1,12.21,6.72,28.93,28.93,0,1,1,1.92-23.61,7,7,0,0,1-4.87,9.09Zm-13-11.1a15,15,0,0,0-23.21,5.84Z"/><path class="cls-2" d="M282.48,43.9V71.69a7,7,0,0,1-13.93,0V43.9a8.46,8.46,0,0,0-16.92,0V71.69a7,7,0,0,1-7,7h0a7,7,0,0,1-7-7V43.9a8.46,8.46,0,0,0-16.92,0V71.69a7,7,0,0,1-13.93,0V43.9a22.33,22.33,0,0,1,37.82-16.15A22.33,22.33,0,0,1,282.48,43.9Z"/><path class="cls-2" d="M353.33,49.8a28.84,28.84,0,0,1-44.26,24.42A7,7,0,0,1,295.54,72V7a7,7,0,0,1,13.94,0V25.13A28.83,28.83,0,0,1,353.33,49.8Zm-13.94,0a15,15,0,1,0-15,15A15,15,0,0,0,339.39,49.8Z"/><path class="cls-2" d="M413,49.54,378,58.32a15,15,0,0,0,25.7-1,7,7,0,1,1,12.2,6.72,28.92,28.92,0,1,1,1.93-23.61A7,7,0,0,1,413,49.54Zm-13-11.1a15,15,0,0,0-23.2,5.84Z"/><path class="cls-2" d="M503.68,43.9V71.69a7,7,0,0,1-13.93,0V43.9a8.46,8.46,0,0,0-16.92,0V71.69a7,7,0,0,1-7,7h0a7,7,0,0,1-7-7V43.9a8.46,8.46,0,0,0-16.92,0V71.69a7,7,0,0,1-13.93,0V43.9a22.33,22.33,0,0,1,37.82-16.15A22.33,22.33,0,0,1,503.68,43.9Z"/></g></g><g id="Custom_rounded_type_family_with_six_weight" data-name="Custom rounded type family with six weight" class="cls-1"><g class="cls-1"><path class="cls-2" d="M18.25,147.74a10.63,10.63,0,1,1-.32-15.14A.93.93,0,0,1,16.65,134a8.76,8.76,0,1,0,.27,12.48.92.92,0,0,1,1.31,0A.93.93,0,0,1,18.25,147.74Z"/><path class="cls-2" d="M32.41,136.34V145a5.75,5.75,0,1,1-11.5,0v-8.68a.94.94,0,0,1,1.87,0V145a3.88,3.88,0,0,0,7.76,0v-8.68a.94.94,0,0,1,1.87,0Z"/><path class="cls-2" d="M45.74,146.18c0,3.21-2.93,4.66-5,4.66-2.65,0-4.57-1.06-5.4-3a.92.92,0,0,1,.48-1.22.93.93,0,0,1,1.23.48c.66,1.53,2.37,1.85,3.69,1.85.66,0,3.15-.47,3.15-2.79,0-1.29-1.05-1.65-3.43-2.16-2.1-.46-5-1.08-5-4.09,0-4.49,3.86-4.49,5.13-4.49A4.52,4.52,0,0,1,45,137.87a.93.93,0,1,1-1.66.84,2.73,2.73,0,0,0-2.68-1.41c-2.47,0-3.27.64-3.27,2.63,0,1.36,1.07,1.74,3.51,2.26C43,142.67,45.74,143.25,45.74,146.18Z"/><path class="cls-2" d="M56.1,136.37a.93.93,0,0,1-.93.93H52.06v12.44a.93.93,0,1,1-1.86,0V137.3h-2a.93.93,0,1,1,0-1.86h2v-2.9a.93.93,0,0,1,1.86,0v2.9h3.11A.93.93,0,0,1,56.1,136.37Z"/><path class="cls-2" d="M72.46,143.07a7.87,7.87,0,1,1-7.86-7.87A7.88,7.88,0,0,1,72.46,143.07Zm-1.86,0a6,6,0,1,0-6,6A6,6,0,0,0,70.6,143.07Z"/><path class="cls-2" d="M96,141.19v8.54a.93.93,0,1,1-1.86,0v-8.54a3.82,3.82,0,1,0-7.63,0v8.54a.94.94,0,0,1-.93.94h0a.94.94,0,0,1-.93-.94v-8.54a3.82,3.82,0,1,0-7.63,0v8.54a.93.93,0,1,1-1.86,0v-8.54a5.67,5.67,0,0,1,10.42-3.1A5.67,5.67,0,0,1,96,141.19Z"/><path class="cls-2" d="M117.23,136.43a.93.93,0,0,1-.93.93c-3,0-6.53,1.39-6.53,5.29v7.06a.93.93,0,1,1-1.86,0V136.43a.93.93,0,1,1,1.86,0v1.46a9.22,9.22,0,0,1,6.53-2.4A.94.94,0,0,1,117.23,136.43Z"/><path class="cls-2" d="M133.33,143.07a7.87,7.87,0,1,1-7.87-7.87A7.88,7.88,0,0,1,133.33,143.07Zm-1.86,0a6,6,0,1,0-6,6A6,6,0,0,0,131.47,143.07Z"/><path class="cls-2" d="M147.58,136.34V145a5.75,5.75,0,0,1-11.5,0v-8.68a.93.93,0,0,1,1.86,0V145a3.89,3.89,0,0,0,7.77,0v-8.68a.94.94,0,0,1,1.87,0Z"/><path class="cls-2" d="M162.14,141.19v8.53a.94.94,0,0,1-1.87,0v-8.53a3.8,3.8,0,0,0-7.6,0v8.53a.93.93,0,1,1-1.86,0v-8.53a5.67,5.67,0,0,1,11.33,0Z"/><path class="cls-2" d="M180.5,130.42v19.65a.94.94,0,0,1-1.87,0v-1.91a7.85,7.85,0,1,1,0-10.13v-7.61a.94.94,0,1,1,1.87,0Zm-1.87,12.67a6,6,0,1,0-6,6A6,6,0,0,0,178.63,143.09Z"/><path class="cls-2" d="M198.77,141.21a.91.91,0,0,1-.59.46l-12.58,3.17A6,6,0,0,0,196.67,146a.94.94,0,0,1,1.64.91,7.91,7.91,0,1,1,.52-6.45A.9.9,0,0,1,198.77,141.21Zm-2.13-1.08A6,6,0,0,0,185.35,143Z"/><path class="cls-2" d="M216.68,130.42v19.65a.94.94,0,0,1-1.87,0v-1.91a7.85,7.85,0,1,1,0-10.13v-7.61a.94.94,0,1,1,1.87,0Zm-1.87,12.67a6,6,0,1,0-6,6A6,6,0,0,0,214.81,143.09Z"/><path class="cls-2" d="M236.19,136.37a.94.94,0,0,1-.94.93h-3.1v12.44a.93.93,0,1,1-1.86,0V137.3h-2a.93.93,0,0,1,0-1.86h2v-2.9a.93.93,0,1,1,1.86,0v2.9h3.1A.93.93,0,0,1,236.19,136.37Z"/><path class="cls-2" d="M251.36,136.43V149.9c0,4.29-3.07,7.78-6.84,7.78a6.77,6.77,0,0,1-6-3.94.93.93,0,0,1,1.67-.84,4.9,4.9,0,0,0,4.29,2.91c2.74,0,5-2.65,5-5.91v-1.85a6.24,6.24,0,0,1-4.82,2.41c-3.68,0-6.68-3.49-6.68-7.79v-6.24a.93.93,0,1,1,1.86,0v6.24c0,3.27,2.16,5.92,4.82,5.92s4.82-2.65,4.82-5.92v-6.24a.94.94,0,1,1,1.87,0Z"/><path class="cls-2" d="M270.07,142.78A7.48,7.48,0,0,1,257,147.71v8.8a.93.93,0,1,1-1.86,0V136.22a.93.93,0,1,1,1.86,0v1.62a7.48,7.48,0,0,1,13.12,4.94Zm-1.86,0a5.63,5.63,0,1,0-5.63,5.62A5.64,5.64,0,0,0,268.21,142.78Z"/><path class="cls-2" d="M287.57,141.21a.91.91,0,0,1-.59.46l-12.58,3.17A6,6,0,0,0,285.47,146a.93.93,0,0,1,1.27-.36,1,1,0,0,1,.37,1.27,7.91,7.91,0,1,1,.52-6.45A.9.9,0,0,1,287.57,141.21Zm-2.13-1.08a6,6,0,0,0-11.3,2.84Z"/><path class="cls-2" d="M307,130.63a.93.93,0,0,1-.93.93,4.28,4.28,0,0,0-4.09,3.93h1.83a.94.94,0,1,1,0,1.87H302v12.41a.93.93,0,1,1-1.86,0V137.36h-1.51a.94.94,0,1,1,0-1.87h1.52a6.14,6.14,0,0,1,6-5.79A.93.93,0,0,1,307,130.63Z"/><path class="cls-2" d="M318.18,150.51a.94.94,0,0,1-1.32,0l-1-1a.86.86,0,0,1-.21-.4,8.81,8.81,0,0,1-5.33,1.73,5.92,5.92,0,0,1-3.11-.75,3.11,3.11,0,0,1-1.56-2.72c0-3.59,2.76-4,5-4.42,2-.33,3.86-.66,5-2.57-.09-.73-.62-2.9-4-2.9a3.74,3.74,0,0,0-3.92,3.26.93.93,0,0,1-1.85-.23,5.6,5.6,0,0,1,5.77-4.9c4.78,0,5.83,3.62,5.83,5v7.88l.74.77A.93.93,0,0,1,318.18,150.51Zm-2.57-5v-2.49a10.25,10.25,0,0,1-4.68,1.65c-2.42.4-3.4.65-3.4,2.58a1.23,1.23,0,0,0,.67,1.13,4.17,4.17,0,0,0,2.13.48C312.83,148.9,315.61,147.53,315.61,145.55Z"/><path class="cls-2" d="M342,141.19v8.54a.94.94,0,1,1-1.87,0v-8.54a3.81,3.81,0,1,0-7.62,0v8.54a.94.94,0,0,1-.94.94h0a.93.93,0,0,1-.93-.94v-8.54a3.82,3.82,0,1,0-7.63,0v8.54a.94.94,0,1,1-1.87,0v-8.54a5.67,5.67,0,0,1,10.43-3.1,5.67,5.67,0,0,1,10.43,3.1Z"/><path class="cls-2" d="M346.91,133.54l-.26,0a1.5,1.5,0,0,1-1.21-1.73,1.43,1.43,0,0,1,.61-1,1.47,1.47,0,0,1,1.11-.25,1.51,1.51,0,0,1,1,.61,1.5,1.5,0,0,1-.36,2.08,1.53,1.53,0,0,1-.85.27Zm.92,2.83v13.34a.93.93,0,1,1-1.86,0V136.37a.93.93,0,1,1,1.86,0Z"/><path class="cls-2" d="M353.94,130.67v19.07a.94.94,0,1,1-1.87,0V130.67a.94.94,0,1,1,1.87,0Z"/><path class="cls-2" d="M370.61,136.43V149.9c0,4.29-3.07,7.78-6.85,7.78a6.77,6.77,0,0,1-5.95-3.94.93.93,0,0,1,1.67-.84,4.9,4.9,0,0,0,4.28,2.91c2.75,0,5-2.65,5-5.91v-1.85a6.25,6.25,0,0,1-4.82,2.41c-3.69,0-6.69-3.49-6.69-7.79v-6.24a.94.94,0,1,1,1.87,0v6.24c0,3.27,2.16,5.92,4.82,5.92s4.82-2.65,4.82-5.92v-6.24a.94.94,0,1,1,1.87,0Z"/><path class="cls-2" d="M403.31,136.46V145a5.67,5.67,0,0,1-10.41,3.1,5.67,5.67,0,0,1-10.41-3.1v-8.53a.94.94,0,1,1,1.87,0V145a3.81,3.81,0,0,0,7.61,0h0v-8.53a.93.93,0,0,1,.93-.94h0a.93.93,0,0,1,.93.94V145h0a3.81,3.81,0,0,0,7.61,0v-8.53a.94.94,0,1,1,1.87,0Z"/><path class="cls-2" d="M408.23,133.54l-.26,0a1.49,1.49,0,0,1-1.21-1.73,1.43,1.43,0,0,1,.61-1,1.46,1.46,0,0,1,1.11-.25,1.51,1.51,0,0,1,1,.61,1.47,1.47,0,0,1,.25,1.11,1.51,1.51,0,0,1-.61,1,1.53,1.53,0,0,1-.85.27Zm.92,2.83v13.34a.93.93,0,1,1-1.86,0V136.37a.93.93,0,1,1,1.86,0Z"/><path class="cls-2" d="M420.77,136.37a.93.93,0,0,1-.93.93h-3.1v12.44a.94.94,0,1,1-1.87,0V137.3h-2a.93.93,0,0,1,0-1.86h2v-2.9a.94.94,0,0,1,1.87,0v2.9h3.1A.93.93,0,0,1,420.77,136.37Z"/><path class="cls-2" d="M434.5,141v8.73a.93.93,0,1,1-1.86,0V141a3.91,3.91,0,1,0-7.81,0v8.72a.94.94,0,1,1-1.87,0v-19a.94.94,0,1,1,1.87,0v6.08A5.74,5.74,0,0,1,434.5,141Z"/><path class="cls-2" d="M456.26,146.18c0,3.21-2.94,4.66-5,4.66-2.65,0-4.57-1.06-5.4-3a.93.93,0,0,1,1.71-.74c.66,1.53,2.37,1.85,3.69,1.85.67,0,3.15-.47,3.15-2.79,0-1.29-1-1.65-3.42-2.16-2.1-.46-5-1.08-5-4.09,0-4.49,3.86-4.49,5.13-4.49a4.54,4.54,0,0,1,4.35,2.43.93.93,0,0,1-.41,1.25.94.94,0,0,1-1.26-.41,2.73,2.73,0,0,0-2.68-1.41c-2.47,0-3.27.64-3.27,2.63,0,1.36,1.07,1.74,3.51,2.26C453.54,142.67,456.26,143.25,456.26,146.18Z"/><path class="cls-2" d="M460.73,133.54l-.26,0a1.5,1.5,0,0,1-1.22-1.73,1.48,1.48,0,0,1,.62-1,1.46,1.46,0,0,1,1.11-.25,1.51,1.51,0,0,1,1,.61,1.47,1.47,0,0,1,.25,1.11,1.51,1.51,0,0,1-.61,1,1.56,1.56,0,0,1-.85.27Zm.92,2.83v13.34a.93.93,0,1,1-1.86,0V136.37a.93.93,0,1,1,1.86,0Z"/><path class="cls-2" d="M476.26,150.58a.93.93,0,0,1-1.31-.21l-4.26-5.93-4.16,5.8a.92.92,0,0,1-1.3.21.93.93,0,0,1-.21-1.3l4.52-6.31-4.2-5.84a.94.94,0,0,1,.21-1.31.93.93,0,0,1,1.3.22l3.84,5.33,3.83-5.33a.93.93,0,0,1,1.3-.22A.94.94,0,0,1,476,137l-4.19,5.84,4.63,6.44A.94.94,0,0,1,476.26,150.58Z"/><path class="cls-2" d="M508.24,136.46V145a5.66,5.66,0,0,1-10.4,3.1,5.67,5.67,0,0,1-10.41-3.1v-8.53a.94.94,0,1,1,1.87,0V145a3.8,3.8,0,0,0,7.6,0h0v-8.53a.94.94,0,0,1,.94-.94h0a.94.94,0,0,1,.93.94V145h0a3.81,3.81,0,0,0,7.61,0v-8.53a.93.93,0,1,1,1.86,0Z"/><path class="cls-2" d="M526.25,141.21a.93.93,0,0,1-.6.46l-12.58,3.17A6,6,0,0,0,524.15,146a.92.92,0,0,1,1.26-.36.94.94,0,0,1,.37,1.27,7.9,7.9,0,1,1,.53-6.45A1,1,0,0,1,526.25,141.21Zm-2.13-1.08a6,6,0,0,0-11.3,2.84Z"/><path class="cls-2" d="M530.71,133.54l-.26,0a1.5,1.5,0,0,1-1.21-1.73,1.48,1.48,0,0,1,.62-1,1.46,1.46,0,0,1,1.11-.25,1.51,1.51,0,0,1,1,.61,1.47,1.47,0,0,1,.25,1.11,1.51,1.51,0,0,1-.61,1,1.56,1.56,0,0,1-.86.27Zm.93,2.83v13.34a.94.94,0,1,1-1.87,0V136.37a.94.94,0,1,1,1.87,0Z"/><path class="cls-2" d="M550,136.36v13.35a7.43,7.43,0,0,1-13.87,3.72.93.93,0,0,1,1.61-.93,5.57,5.57,0,0,0,10.39-2.79v-1.94a7.43,7.43,0,1,1,0-9.82v-1.59a.94.94,0,0,1,1.87,0Zm-1.87,6.5a5.57,5.57,0,1,0-5.57,5.57A5.58,5.58,0,0,0,548.13,142.86Z"/><path class="cls-2" d="M565.24,141v8.73a.94.94,0,0,1-1.87,0V141a3.9,3.9,0,1,0-7.8,0v8.72a.94.94,0,1,1-1.87,0v-19a.94.94,0,1,1,1.87,0v6.08a5.74,5.74,0,0,1,9.67,4.23Z"/><path class="cls-2" d="M575.45,136.37a.93.93,0,0,1-.93.93h-3.1v12.44a.94.94,0,1,1-1.87,0V137.3h-2a.93.93,0,1,1,0-1.86h2v-2.9a.94.94,0,0,1,1.87,0v2.9h3.1A.93.93,0,0,1,575.45,136.37Z"/></g></g></g></g></svg>