<svg xmlns="http://www.w3.org/2000/svg" viewBox="0 0 227.53 41.65"><defs><style>.cls-1{isolation:isolate;}.cls-2{fill:#333;}</style></defs><title>Bembem</title><g id="Layer_2" data-name="Layer 2"><g id="Layer_1-2" data-name="Layer 1"><g id="Bembem" class="cls-1"><g class="cls-1"><path class="cls-2" d="M32,29.23a12.11,12.11,0,0,1-12.1,12.09L3.63,41.15A3.68,3.68,0,0,1,0,37.48V4A3.67,3.67,0,0,1,3.67.29H16.51a12.1,12.1,0,0,1,10,18.82A12.09,12.09,0,0,1,32,29.23ZM7.34,17.13h9.17a4.76,4.76,0,0,0,0-9.51H7.34ZM24.7,29.22A4.75,4.75,0,0,0,20,24.47H7.35v9.37L20,34A4.75,4.75,0,0,0,24.7,29.22Z"/><path class="cls-2" d="M63.21,26.1,44.8,30.73a7.89,7.89,0,0,0,13.53-.52,3.67,3.67,0,0,1,6.43,3.54,15.23,15.23,0,1,1,1-12.44,3.68,3.68,0,0,1-2.57,4.79Zm-6.85-5.85a7.89,7.89,0,0,0-12.23,3.08Z"/><path class="cls-2" d="M111,23.13V37.77a3.67,3.67,0,1,1-7.34,0V23.13a4.46,4.46,0,1,0-8.91,0V37.77a3.67,3.67,0,0,1-3.67,3.67h0a3.67,3.67,0,0,1-3.67-3.67V23.13a4.46,4.46,0,1,0-8.92,0V37.77a3.67,3.67,0,0,1-7.34,0V23.13a11.77,11.77,0,0,1,19.93-8.51A11.76,11.76,0,0,1,111,23.13Z"/><path class="cls-2" d="M148.32,26.24A15.18,15.18,0,0,1,125,39.1a3.66,3.66,0,0,1-7.13-1.2V3.67a3.67,3.67,0,1,1,7.34,0v9.57a15.19,15.19,0,0,1,23.1,13Zm-7.34,0a7.88,7.88,0,1,0-7.88,7.88A7.89,7.89,0,0,0,141,26.24Z"/><path class="cls-2" d="M179.73,26.1l-18.41,4.63a7.9,7.9,0,0,0,13.54-.52,3.67,3.67,0,0,1,6.43,3.54,15.24,15.24,0,1,1,1-12.44,3.67,3.67,0,0,1-2.57,4.79Zm-6.85-5.85a7.88,7.88,0,0,0-12.22,3.08Z"/><path class="cls-2" d="M227.53,23.13V37.77a3.67,3.67,0,1,1-7.34,0V23.13a4.46,4.46,0,0,0-8.92,0V37.77a3.67,3.67,0,0,1-3.67,3.67h0a3.67,3.67,0,0,1-3.67-3.67V23.13a4.46,4.46,0,1,0-8.91,0V37.77a3.67,3.67,0,0,1-7.34,0V23.13a11.76,11.76,0,0,1,19.92-8.51,11.77,11.77,0,0,1,19.93,8.51Z"/></g></g></g></g></svg>