<svg xmlns="http://www.w3.org/2000/svg" viewBox="0 0 251.61 45.7"><defs><style>.cls-1{isolation:isolate;}.cls-2{fill:#333;}</style></defs><title>CHIAUGAL</title><g id="Layer_2" data-name="Layer 2"><g id="Layer_1-2" data-name="Layer 1"><g id="CHIAUGAL" class="cls-1"><g class="cls-1"><path class="cls-2" d="M9,31.85a4.84,4.84,0,0,0,.95,2.2,2,2,0,0,0,1.55.75,4.76,4.76,0,0,0,3-1.5A8.66,8.66,0,0,1,16.81,32a12.22,12.22,0,0,0,1.75-.9,3.67,3.67,0,0,0,1.15-1.2q0-.11.15-.15a.36.36,0,0,1,.25,0,3,3,0,0,0,1.95.75,10.53,10.53,0,0,0,1.6-.2,5.57,5.57,0,0,1,1.95-.2l.55-.05a.31.31,0,0,1,.35.35.37.37,0,0,1-.18.4,1.33,1.33,0,0,1-.57.2,5.67,5.67,0,0,1-1.2.3,3.26,3.26,0,0,0-1.83,1.1,3,3,0,0,0-.62,1.85,3.6,3.6,0,0,0,.2,1.2,3.6,3.6,0,0,1,.15,1.05c0,1.27-.8,2.45-2.4,3.55a11,11,0,0,1-6.35,2,10.8,10.8,0,0,1-5.38-1.42,11.43,11.43,0,0,1-4.12-4A42.54,42.54,0,0,1,1,30.35a13.73,13.73,0,0,1-1-5.7,34.37,34.37,0,0,1,2.1-11.3q1.1-2.89,2.2-5.4a8.83,8.83,0,0,1,2-3A33.66,33.66,0,0,1,9.81,2.15l1.4-1a4.94,4.94,0,0,1,3-1.1,5.88,5.88,0,0,1,2.5.58,19.64,19.64,0,0,1,2.8,1.62l.67.48A1.58,1.58,0,0,0,21,3c.4,0,.78-.32,1.15-1a.76.76,0,0,1,.7-.45,1.63,1.63,0,0,1,.45.08l.5.12a5.23,5.23,0,0,1,2,.7A25.87,25.87,0,0,1,28,4L29,4.75a4.58,4.58,0,0,1,2.3,3.75,6.27,6.27,0,0,1-1.55,3.75A19.48,19.48,0,0,1,28.31,14a38.85,38.85,0,0,0-2.6,3.45,12.36,12.36,0,0,0-1.5,3.2,7,7,0,0,1-1.08,2,2.27,2.27,0,0,1-1.87.77,3.72,3.72,0,0,1-2.33-.75,4.61,4.61,0,0,1-1.47-2,28.61,28.61,0,0,1-1.28-3.2,9,9,0,0,1-.42-2.7,6.79,6.79,0,0,1,.45-2.4.87.87,0,0,0,0-.37c0-.15,0-.28,0-.38l-.7.45a16.6,16.6,0,0,0-4,5.7,35.11,35.11,0,0,0-2.12,7.6,12.3,12.3,0,0,0-.25,1.3,17.22,17.22,0,0,0-.5,3.3A5.83,5.83,0,0,0,9,31.85Z"/><path class="cls-2" d="M69.06,7a3.7,3.7,0,0,1,.45,1.85,3.89,3.89,0,0,1-1.05,2.7,9.28,9.28,0,0,0-1.15,1.55,2.77,2.77,0,0,0-.4,1.4,3.32,3.32,0,0,0,.85,2.1,1.26,1.26,0,0,1,.3.85,3.37,3.37,0,0,1-1,1.9,11.62,11.62,0,0,0-2.23,3.7,39.11,39.11,0,0,0-1.37,5.05l-.45,1.95-.25,1a35.33,35.33,0,0,1-1.1,3.9,10.67,10.67,0,0,1-1.63,2.88A7.28,7.28,0,0,1,57.16,40l-.1,0a11,11,0,0,0-2.1.45,2.64,2.64,0,0,1-.85-.25,1.17,1.17,0,0,1-.7-1.2,3,3,0,0,1,.05-.57,4.7,4.7,0,0,0,0-.63,44,44,0,0,0-.4-4.75,49.64,49.64,0,0,1-.4-5.2c0-.6,0-1,0-1.35v-.1a.49.49,0,0,0-.18-.4.62.62,0,0,0-.42-.15,2.61,2.61,0,0,0-1.45.45,6.31,6.31,0,0,0-1.53,1.25A2.43,2.43,0,0,0,48.46,29l-.9,9.4a3.33,3.33,0,0,1-.33,1.33,1.87,1.87,0,0,1-.92.82.67.67,0,0,0-.3.25c-.1.13-.14.22-.1.25a2,2,0,0,1,.4,1c0,.17-.12.25-.35.25a2.14,2.14,0,0,1-.63-.12,2,2,0,0,0-.47-.13,4.65,4.65,0,0,0-1.8.5,5.44,5.44,0,0,1-1.9.5,2.12,2.12,0,0,1-2.45-2.2,20.12,20.12,0,0,1-.2-3.4c0-1.07,0-2-.1-2.7A9.91,9.91,0,0,0,38,32.5a2.47,2.47,0,0,0-.55-.92,1.35,1.35,0,0,0-.95-.28,9.45,9.45,0,0,1-5.75-2.2,3.39,3.39,0,0,1-.85-1.17,13,13,0,0,1-.6-1.78c-.1-.37-.23-.8-.4-1.3l-.05-.15a.57.57,0,0,1,.37-.5,1.34,1.34,0,0,1,.78-.15,2.83,2.83,0,0,0,.6.05A5.75,5.75,0,0,0,32,23.9l.9-.25,1.05-.3a10.64,10.64,0,0,0,2.67-1A1.92,1.92,0,0,0,37.46,21a32.17,32.17,0,0,0,.2-3.6,29,29,0,0,0,.25-4.25V10.1a39.26,39.26,0,0,1,.15-4A4.08,4.08,0,0,0,38,5.43c0-.19-.07-.35-.1-.48a5.74,5.74,0,0,1-.15-1.15,1.29,1.29,0,0,1,.5-1.15,3.56,3.56,0,0,1,1.65-.45L41,2.15c1-.07,1.73-.1,2.2-.1a16,16,0,0,1,3,.3,7.45,7.45,0,0,1,3.6,1.8,4.34,4.34,0,0,1,1.25,3.2,7.66,7.66,0,0,1-.5,2.65,20.13,20.13,0,0,0-.85,3.18c-.2,1.08-.42,2.45-.65,4.12l0,.4a.58.58,0,0,0,.3.5.82.82,0,0,0,.4.1,7.36,7.36,0,0,0,2.67-.7c1.12-.47,1.71-.88,1.78-1.25Q55.3,11.6,56,8a3.28,3.28,0,0,0,.1-.9,5.35,5.35,0,0,0,0-.85c-.17-1.13.26-1.67,1.3-1.6l2.55.15c1.76.07,3.23.17,4.4.3a15.55,15.55,0,0,1,3.45.8A2.6,2.6,0,0,1,69.06,7Z"/><path class="cls-2" d="M87.41,31.65a3.76,3.76,0,0,1,.7-.1,2,2,0,0,1,1.4.5,2.73,2.73,0,0,1,.75,1.5,10.75,10.75,0,0,1,.2,2,2.41,2.41,0,0,1-.5,1.65,5.39,5.39,0,0,1-1.8,1.1q-2.7,1.16-4.83,1.93A36.22,36.22,0,0,1,79,41.45,9.58,9.58,0,0,1,77,41.7a6.58,6.58,0,0,1-3.83-1.15,6.18,6.18,0,0,1-2.37-3.25,3.93,3.93,0,0,1-.13-.45,2,2,0,0,0-.22-.55,3,3,0,0,1-.3-1c0-.53.36-.8,1.1-.8a3,3,0,0,1,.6,0,7.62,7.62,0,0,0,1.1.1,7.2,7.2,0,0,0,2.55-.45c.76-.27,1.15-.72,1.15-1.35a1.61,1.61,0,0,0-.3-.9,7.84,7.84,0,0,1-1-2.5,26.27,26.27,0,0,1-.42-3.1l-.15-1.5a28,28,0,0,1-.3-4.05,38.71,38.71,0,0,1,.85-7.55,1,1,0,0,0-.15-.82,2.39,2.39,0,0,0-.85-.53,9.83,9.83,0,0,1-3.2-2.17,5.89,5.89,0,0,1-1.5-3.23,2.69,2.69,0,0,1,0-.6,1.36,1.36,0,0,1,.25-.9.85.85,0,0,1,.7-.3,3.49,3.49,0,0,1,.8.2,8.07,8.07,0,0,0,2.8.55,7.49,7.49,0,0,0,3.6-1.05,3,3,0,0,1,1.45-.3,8.31,8.31,0,0,1,1,0l1,.05A5.35,5.35,0,0,0,82,4.1q2.55-.6,8.8-2.3a5.58,5.58,0,0,1,1.15-.2l.35,0a3.27,3.27,0,0,0,.77,0,2.12,2.12,0,0,1,.88.08,1,1,0,0,1,.6.67,4.52,4.52,0,0,1,.2,1,3.05,3.05,0,0,1-.85,1.9A2.87,2.87,0,0,0,93,6.65a5.2,5.2,0,0,1-1.4,2.5A9,9,0,0,1,89,10.8a4.12,4.12,0,0,0-1.73,1.38,7.15,7.15,0,0,0-1,2.22,27,27,0,0,0-1,4.58c-.18,1.51-.36,3.54-.52,6.07-.14,2.17-.25,3.73-.35,4.7-.07.8,0,1.33.32,1.58a2.07,2.07,0,0,0,1.38.37Z"/><path class="cls-2" d="M109,4a16.16,16.16,0,0,1,3.65.35A4.54,4.54,0,0,1,115.16,6a2.55,2.55,0,0,0,1.35,1,2.76,2.76,0,0,1,1.25,1,3.53,3.53,0,0,1,.87,1.3,4.55,4.55,0,0,1,.23,1.5,8.65,8.65,0,0,1,0,1l0,1.3c.2,1.3.35,2.62.45,4l.3,2.68a37.29,37.29,0,0,0,.8,4.62,2.05,2.05,0,0,0,.17.83,1.79,1.79,0,0,0,.83.72,1.07,1.07,0,0,1,.5.13c.16.08.25.15.25.22s-.09.1-.25.1a5,5,0,0,0-.65,2.6,16.05,16.05,0,0,0,.3,2.55,11.9,11.9,0,0,1,.35,2.6,16.42,16.42,0,0,0,.4,2.9,17,17,0,0,1,.5,3.5,7.17,7.17,0,0,1-.35,2.25,3.82,3.82,0,0,1-1.6,2.05,4.63,4.63,0,0,1-2.65.85,3.49,3.49,0,0,1-1.4-.3.47.47,0,0,1-.35-.15,1.9,1.9,0,0,1-.3-.42,2,2,0,0,0-.35-.48c-.3-1.17-.62-2.78-.95-4.85,0-.23-.15-.92-.35-2a27.38,27.38,0,0,0-.8-3.3c0-.83-.27-1.25-.8-1.25a2,2,0,0,0-.7.15l-2.6.75q-3.11.9-4.85,1.5a29.13,29.13,0,0,0-3.3,1.35,9.52,9.52,0,0,1-2.2.4,2.38,2.38,0,0,1-1.3-.32,6.67,6.67,0,0,1-1.25-1.18l-.9-.95a5.42,5.42,0,0,1-.5-1.55c0-.13-.09-.36-.18-.67a3.34,3.34,0,0,0-.32-.83,3.25,3.25,0,0,1,.47-1.9A1.83,1.83,0,0,1,96.76,29a1.37,1.37,0,0,0,1.55-1.55q.5-1.54,1.9-6.2c.83-3,1.55-5.33,2.15-7.1l3-9.2a1.65,1.65,0,0,1,1.8-1.1c.26,0,.56,0,.87,0S108.71,4,109,4Zm-.5,22a6.48,6.48,0,0,0,2.37-.3,1.18,1.18,0,0,0,.68-1.2,7.19,7.19,0,0,0-.45-2.1v-1a1.69,1.69,0,0,1-.55-1.1.49.49,0,0,0-.4.18,2.19,2.19,0,0,0-.3.45,3.84,3.84,0,0,1-.3.47q-.3.55-.9,1.95a13.16,13.16,0,0,1-.65,1.55.86.86,0,0,1-.25.53.82.82,0,0,0-.25.57.69.69,0,0,0,.5.2A.7.7,0,0,0,108.51,26Z"/><path class="cls-2" d="M152,13.75a2.93,2.93,0,0,1,.58,1.55c.06.6.1,1,.1,1.3s0,1-.1,1.9a12.16,12.16,0,0,0-.15,1.9,9.14,9.14,0,0,0,.25,2c.16.74.28,1.24.35,1.47a22.77,22.77,0,0,1-.3,10.3,9,9,0,0,1-3.4,5.15,9.67,9.67,0,0,1-5.8,1.8,12.07,12.07,0,0,1-4.9-1l-2.25-.85a17,17,0,0,1-4.45-2,10.74,10.74,0,0,1-3.38-3.77,21.55,21.55,0,0,1-1.87-5.33,42.83,42.83,0,0,1-.93-6.32q-.23-3.18-.32-7.93c-.07-2.47-.14-4.32-.2-5.55a1.74,1.74,0,0,1,1.4-1.8,42,42,0,0,1,6.65-1.35l1.35-.2a2.51,2.51,0,0,1,.55,0A3.46,3.46,0,0,1,138,6.5a2.28,2.28,0,0,1,.4,1.25A5.41,5.41,0,0,1,138,9.6a23.73,23.73,0,0,0-1.2,7.9c0,1.1,0,1.92.05,2.45a47.56,47.56,0,0,0,1.35,9.55,12.09,12.09,0,0,0,2.75,4.9c.33.37.61.55.85.55s.55-.32.75-1a19.51,19.51,0,0,0,.7-4.95,15.56,15.56,0,0,1,.45-3.65,21.13,21.13,0,0,0,.4-3.35,16.56,16.56,0,0,0-.15-2.25c-.07-.93-.1-1.65-.1-2.15a12.71,12.71,0,0,1,.1-1.4,4.12,4.12,0,0,0,.05-.7q0-.25,0-.9a4.75,4.75,0,0,1,.08-1.12,2,2,0,0,1,.35-.83,1.84,1.84,0,0,0,.17-.37c.05-.15,0-.25,0-.28a2.54,2.54,0,0,1-.45-1.15c0-.43.31-.68.95-.75a8.89,8.89,0,0,1,1.9.13l1.5.22,1.9.2a1.64,1.64,0,0,1-.35.18,2.83,2.83,0,0,0-.4.17c-.07,0-.13.07-.18.2l-.12.3a1.45,1.45,0,0,0,.35.15,6.43,6.43,0,0,1,.7-.1c.36,0,.55.17.55.5a2.11,2.11,0,0,1-.13.65,1.31,1.31,0,0,0-.07.65A2,2,0,0,1,152,13.75Z"/><path class="cls-2" d="M171.31,42.35a10.88,10.88,0,0,1-6.53-2.25,13.55,13.55,0,0,1-4.57-5.85,50.8,50.8,0,0,1-2-5.42,16.93,16.93,0,0,1-.72-4.83c0-.37,0-.88.1-1.55a31,31,0,0,1,4.1-11.7,28.32,28.32,0,0,1,2.75-4.07A11.58,11.58,0,0,1,167.71,4,19.55,19.55,0,0,1,169.58,3a4,4,0,0,1,1.58-.33,3.86,3.86,0,0,1,2.3.85.87.87,0,0,0,.55.2.79.79,0,0,0,.67-.47,4.25,4.25,0,0,1,.33-.53c.26-.73.68-1.1,1.25-1.1a2.8,2.8,0,0,1,1.15.35,14.71,14.71,0,0,1,4.9,3.7,4.32,4.32,0,0,1,1.2,2.8,6.16,6.16,0,0,1-1.8,3.8l-1.05,1.43a14.19,14.19,0,0,0-1.5,2.52c-.57,1.17-1.3,1.75-2.2,1.75a3.64,3.64,0,0,1-2-.75c-.6-.53-1-.87-1.1-1-.87-1.07-1.52-1.6-2-1.6s-1,.63-1.5,1.9c-.5,1.07-1,2.05-1.5,2.95a26.68,26.68,0,0,0-1.7,3.38,9.47,9.47,0,0,0-.7,3.07c-.07,1.2-.14,2.1-.2,2.7-.14,1.73-.2,3-.2,3.9a2.79,2.79,0,0,0,.35,1.6,1.3,1.3,0,0,0,1.15.5,7.89,7.89,0,0,0,1.15-.2,17.45,17.45,0,0,0,6.5-3.8,1.73,1.73,0,0,0,.32-.3l.33-.35-.43-.12a1.84,1.84,0,0,0-.47-.08A6.54,6.54,0,0,1,170.86,28a6.23,6.23,0,0,1-1.9-4,1.72,1.72,0,0,1,.12-1.1,1.39,1.39,0,0,1,.88-.6l5.7-1.85c2.4-.83,4.48-1.52,6.25-2.05s3.66-1,6-1.45l2.5-.55a2.83,2.83,0,0,1,.6,0,1.53,1.53,0,0,1,1.55,1,2,2,0,0,1,.2.9,1.74,1.74,0,0,1-.8,1.4,10.83,10.83,0,0,0-1.53,1.4q-.68.75-1.62,1.95c-.84,1-1.49,1.8-2,2.3a8.43,8.43,0,0,1-1.72,1.35c-.37.17-.55.38-.55.65a.49.49,0,0,0,.05.25,1,1,0,0,0,.35.5,1.69,1.69,0,0,0,.6.3,2,2,0,0,0,.45.1,1.4,1.4,0,0,0,.4.05,1.63,1.63,0,0,1,.45.07.43.43,0,0,1,.25.28c.06.17,0,.28-.05.35a1,1,0,0,1-.4.15q-.25,0-.3.15c-.14.2-.37.55-.7,1.05a2.86,2.86,0,0,0-.55,1.35,3.51,3.51,0,0,1-.45,1.53A8.77,8.77,0,0,1,183.51,35a10.62,10.62,0,0,0-1,1.35,12.52,12.52,0,0,1-5.4,4.7A13.8,13.8,0,0,1,171.31,42.35Z"/><path class="cls-2" d="M206.21,4a16.16,16.16,0,0,1,3.65.35A4.54,4.54,0,0,1,212.36,6a2.55,2.55,0,0,0,1.35,1A2.76,2.76,0,0,1,215,8a3.53,3.53,0,0,1,.87,1.3,4.55,4.55,0,0,1,.23,1.5,8.65,8.65,0,0,1-.05,1l0,1.3c.2,1.3.35,2.62.45,4l.3,2.68a37.29,37.29,0,0,0,.8,4.62,1.9,1.9,0,0,0,.17.83,1.79,1.79,0,0,0,.83.72,1.07,1.07,0,0,1,.5.13c.16.08.25.15.25.22s-.09.1-.25.1a5,5,0,0,0-.65,2.6,16.05,16.05,0,0,0,.3,2.55,11.9,11.9,0,0,1,.35,2.6,16.42,16.42,0,0,0,.4,2.9,17,17,0,0,1,.5,3.5,7.17,7.17,0,0,1-.35,2.25,3.82,3.82,0,0,1-1.6,2.05,4.63,4.63,0,0,1-2.65.85,3.49,3.49,0,0,1-1.4-.3.47.47,0,0,1-.35-.15,1.9,1.9,0,0,1-.3-.42,2,2,0,0,0-.35-.48c-.3-1.17-.62-2.78-.95-4.85,0-.23-.15-.92-.35-2a27.38,27.38,0,0,0-.8-3.3c0-.83-.27-1.25-.8-1.25a2,2,0,0,0-.7.15l-2.6.75q-3.11.9-4.85,1.5a29.13,29.13,0,0,0-3.3,1.35,9.52,9.52,0,0,1-2.2.4,2.38,2.38,0,0,1-1.3-.32,6.67,6.67,0,0,1-1.25-1.18l-.9-.95a5.42,5.42,0,0,1-.5-1.55c0-.13-.1-.36-.18-.67a3.34,3.34,0,0,0-.32-.83,3.17,3.17,0,0,1,.47-1.9A1.83,1.83,0,0,1,194,29a1.37,1.37,0,0,0,1.55-1.55q.5-1.54,1.9-6.2c.83-3,1.55-5.33,2.15-7.1L202.61,5a1.65,1.65,0,0,1,1.8-1.1c.26,0,.55,0,.87,0S205.91,4,206.21,4Zm-.5,22a6.48,6.48,0,0,0,2.37-.3,1.18,1.18,0,0,0,.68-1.2,7.19,7.19,0,0,0-.45-2.1v-1a1.69,1.69,0,0,1-.55-1.1.49.49,0,0,0-.4.18,2.19,2.19,0,0,0-.3.45,3.84,3.84,0,0,1-.3.47q-.3.55-.9,1.95a13.16,13.16,0,0,1-.65,1.55.86.86,0,0,1-.25.53.82.82,0,0,0-.25.57.69.69,0,0,0,.5.2A.7.7,0,0,0,205.71,26Z"/><path class="cls-2" d="M251.61,35.45c0,.5-.36.87-1.08,1.1a18.21,18.21,0,0,1-3.07.6l-1.13.18a4.48,4.48,0,0,0-1.32.32q-1.41.8-11.9,2a11.17,11.17,0,0,0-3,.7A29.66,29.66,0,0,0,227,41.8a3.82,3.82,0,0,1-2,.5,4.44,4.44,0,0,1-2.18-.57,3.92,3.92,0,0,1-1.57-1.63,11.79,11.79,0,0,1-.65-1.45l-.7-1.4a8.52,8.52,0,0,0,.2-1.9,4,4,0,0,0,.2-.85,8.84,8.84,0,0,1,.45-2.4,3.17,3.17,0,0,1,1.35-1.65.65.65,0,0,0,.35-.6.69.69,0,0,0-.2-.5,4.3,4.3,0,0,1-1-2.65,4.14,4.14,0,0,1,.65-2.15,2,2,0,0,0,.2-.95l-.05-1a38.92,38.92,0,0,1,1.3-11.45,28.09,28.09,0,0,0,.75-4.85l.1-1.1c.2-1.87,1-2.8,2.3-2.8a4.62,4.62,0,0,1,1.5.3l1.05.35c.93.3,1.71.57,2.32.8a9,9,0,0,1,1.78.9,3.07,3.07,0,0,1,1.32,1.5A5.35,5.35,0,0,1,235,8.55a5.18,5.18,0,0,1-.45,2.15l-.5,1a9.54,9.54,0,0,0-.63,1.53,4.6,4.6,0,0,0-.22,1.37,4,4,0,0,0,.5,1.9.68.68,0,0,1,.1.35.54.54,0,0,1-.2.45,3.77,3.77,0,0,0-1.38,1.95,13.5,13.5,0,0,0-.32,2.9v2.23a6.43,6.43,0,0,1-.13,1.3,3.41,3.41,0,0,1-.42,1.07,1.83,1.83,0,0,0,.3,1.08.9.9,0,0,0,.7.27,9.35,9.35,0,0,0,1.3-.2c1-.2,2.8-.42,5.32-.65s4.61-.35,6.28-.35a10.1,10.1,0,0,1,2,.15,4.24,4.24,0,0,1,1.42.57,1.21,1.21,0,0,1,.68,1,2.07,2.07,0,0,1,.5,1.35,3.33,3.33,0,0,1-.23,1.08,3.09,3.09,0,0,0-.22.82c0,.33.25.57.75.7q1.2.3,1.32,1.2c.08.6.13.92.13,1Z"/></g></g></g></g></svg>