<svg xmlns="http://www.w3.org/2000/svg" viewBox="0 0 167.35 55.17"><defs><style>.cls-1{isolation:isolate;}.cls-2{fill:#333;}</style></defs><title>Dolbak</title><g id="Layer_2" data-name="Layer 2"><g id="Layer_1-2" data-name="Layer 1"><g id="Dolbak" class="cls-1"><g class="cls-1"><path class="cls-2" d="M40.47,26.67c0,.18.11.51.2,1A7.17,7.17,0,0,1,40.81,29a4.39,4.39,0,0,1-.07.88,9.46,9.46,0,0,1-1.7,4,25.9,25.9,0,0,1-3.4,3.81c-.32.36-.7.76-1.16,1.19a2.93,2.93,0,0,1-1.22.78s-.1,0-.17-.13a.17.17,0,0,0-.24-.07,2.42,2.42,0,0,0-.54.27l-.55.34-2.38,1.5a61.64,61.64,0,0,1-10.33,4.69A55.53,55.53,0,0,1,8.24,49.38l-1,.24a1.77,1.77,0,0,1-.88.1c-1.36-.13-2.13-.2-2.31-.2-.64,0-.95,0-.95-.14a5.4,5.4,0,0,1,.78-.2c.43-.09.64-.16.64-.2s-.06-.11-.34-.17a4,4,0,0,1-.54-.17,1,1,0,0,1,.58-.34,1.21,1.21,0,0,0,.64-.41c.14-.23-.47-.34-1.83-.34s-1.88.07-1.84.2c-.13-.09-.2-.18-.2-.27s.2-.25.61-.34l.82-.2a1.64,1.64,0,0,0-1-.21H1.16c-.59,0-.93-.13-1-.41-.27-.45-.16-.83.34-1.15a3.45,3.45,0,0,1,1.57-.55,7.94,7.94,0,0,0,1.83-.34,1.45,1.45,0,0,0,.82-1A6.34,6.34,0,0,0,4.84,42c0-.45,0-.91-.07-1.36a11.65,11.65,0,0,1-.07-1.29q0-6.95,1-16.46l.21-.61a4.33,4.33,0,0,0-.14-.68,4.27,4.27,0,0,1,.1-.85c.07-.34.13-.64.17-.92a19.24,19.24,0,0,0,.31-2.24c.07-.82.12-1.38.17-1.7a20.22,20.22,0,0,0,.34-3.4l.27-.95A1.21,1.21,0,0,0,7,10.49a1.93,1.93,0,0,0-1.26-.27,7.29,7.29,0,0,1-1.25-.07,1.79,1.79,0,0,1-.68-.61,3.26,3.26,0,0,1-.34-.82A5.32,5.32,0,0,0,3.2,8,1,1,0,0,0,3,7.36a.42.42,0,0,0-.54-.14C2.36,7.09,2.3,7,2.25,7s0,0,0-.07a.7.7,0,0,0,.23-.17,1.2,1.2,0,0,1,.41-.24.53.53,0,0,0,.34-.44l-.34-1a.36.36,0,0,0,.21.13c.09,0,.13-.11.13-.34a1.1,1.1,0,0,0-.13-.68,1.49,1.49,0,0,0-.41-.37.5.5,0,0,1-.27-.44q0-1,2.31-1a15.63,15.63,0,0,1,1.7.1c.63.07,1.06.1,1.29.1a45.57,45.57,0,0,1,10.4.95A48.73,48.73,0,0,1,26.6,6.34a30.78,30.78,0,0,1,8.46,6.05,15.2,15.2,0,0,1,4.46,8.16,23.14,23.14,0,0,1,.54,3.88A9.48,9.48,0,0,0,40.47,26.67ZM2.52,48.6c0-.16,0-.17.14,0l-.07.2S2.52,48.76,2.52,48.6Zm1.06-2.07c.11-.09,0-.14-.31-.14a.56.56,0,0,0-.41.14c-.09.09,0,.13.14.13A1,1,0,0,0,3.58,46.53Zm3,2.24c-.1-.18-.36-.25-.79-.2s-.66,0-.71-.07c0,.14.11.22.2.24a1.27,1.27,0,0,0,.28,0h1ZM8.3,32.72a3.52,3.52,0,0,0-.68,2.39c0,.31.07,1.22.21,2.71a5.4,5.4,0,0,1,0,1.16c0,.55-.07,1.09-.07,1.63,0,1,.09,1.57.27,1.57s.21-.59.21-1.64c0-.36,0-.81,0-1.35a3,3,0,0,1,0-1v-.81c0-.77,0-1.36-.07-1.77a7.48,7.48,0,0,1,.13-1.19,7.82,7.82,0,0,0,.14-1.12C8.53,33.2,8.48,33,8.3,32.72Zm1.3,15c-.1.09-.1.21,0,.34C9.73,48,9.73,47.89,9.6,47.75Zm.47-.51a.38.38,0,0,0,.07-.24.38.38,0,0,1-.2-.34c-.14,0-.2.12-.17.34s.07.37.17.41A.84.84,0,0,0,10.07,47.24Zm8.71-2.68c.63-.28.83-.48.61-.61L18,44.28a3.49,3.49,0,0,0-.58.41q-.3.27-.24.27a7.19,7.19,0,0,0-2.51.48c-.86.32-1.38.5-1.57.55s-.42.07-1.12.23-1.1.38-1.19.65.09.47.41.47a3,3,0,0,0,1.12-.27A4.69,4.69,0,0,1,13,46.8a8.29,8.29,0,0,1,1.19-.51l.91-.3a3.53,3.53,0,0,1,.38-.34,4.48,4.48,0,0,0,.37-.35h.41A1.76,1.76,0,0,0,17.42,45,4.14,4.14,0,0,0,18.78,44.56Zm-8,3.13c0,.13.07.13.2,0l-.13-.28A.39.39,0,0,0,10.82,47.69ZM37.61,24.5a6.92,6.92,0,0,0-1.49-4.18,17.9,17.9,0,0,0-3.68-3.64A27.92,27.92,0,0,0,22.38,12c-.59-.14-1.47-.3-2.65-.48a11.77,11.77,0,0,1-1.7-.27l-1.36-.34a7,7,0,0,0-1.7-.28c-.5,0-.82.12-1,.34a1.83,1.83,0,0,0-.21.75c0,.37-.07.61-.07.75-.18.95-.29,1.72-.34,2.31s-.14,1-.17,1.4,0,.71,0,1,0,.63-.07,1.19a12.16,12.16,0,0,1-.2,1.53,1.11,1.11,0,0,1-.14.48,1.08,1.08,0,0,0-.13.47.53.53,0,0,0,.1.34.57.57,0,0,1,.1.34,3.21,3.21,0,0,1-.1.72c-.07.29-.13.53-.17.71A4.8,4.8,0,0,0,12.42,24c0,.38-.06.71-.1,1s-.12.76-.21,1.19A5.58,5.58,0,0,0,12,27.28a10,10,0,0,1-.34,2.66,9,9,0,0,0-.41,2.24,3.34,3.34,0,0,0,.1.82,3.49,3.49,0,0,1,.1.88,1.44,1.44,0,0,1-.3.88,1.13,1.13,0,0,0-.24.89C11,37,11,38,11,38.64c0,.82,0,1.45-.06,1.9l-.07,1c0,.5.2.74.61.74,0,0,.29,0,.75-.13q6.8-2.45,10-3.81a55,55,0,0,0,9.59-5.44Q37.62,28.57,37.61,24.5ZM20.14,43.57a.43.43,0,0,1-.14,0c0,.09.11.18.34.27s.32,0,.27-.14l-.13-.13a.21.21,0,0,0-.14-.07A.49.49,0,0,0,20.14,43.57Z"/><path class="cls-2" d="M44.21,31.33a.21.21,0,0,1,0-.24A4,4,0,0,1,44.55,30c.22-.57.38-.71.47-.44v.07a4.9,4.9,0,0,1-.23,1c-.16.52-.29.81-.38.85A.42.42,0,0,1,44.21,31.33Zm23.87-2.82-.07.95v3a16.54,16.54,0,0,1-.61,4.08L67.26,38a21.89,21.89,0,0,1-.37,2.69A6.31,6.31,0,0,1,66,42.72l-1.84,2.45a8,8,0,0,1-2.58,2,14,14,0,0,1-2.45,1.36,2.15,2.15,0,0,1-.58.24,5.61,5.61,0,0,0-.58.17,6,6,0,0,0-.88.34c-.41.18-.59.29-.54.34a.72.72,0,0,1-.28-.31q-.14-.24-.27-.27c-.09,0-.13.08-.13.3l-.62.28a1.87,1.87,0,0,1-.61.06l-1.22-.06a9.84,9.84,0,0,1-2.11-.14c-.32-.09-.7-.23-1.16-.41s-.95-.36-1.49-.54a6.21,6.21,0,0,1-3.2-1.7,7.7,7.7,0,0,1-.88-1.63Q44,44,44.28,44c.09-.05.31.29.68,1a4.72,4.72,0,0,0,.61,1.09s0-.29.17-.75a4.11,4.11,0,0,0,.24-.81,4.39,4.39,0,0,0-.11-.85c-.06-.34-.12-.62-.17-.85s-.19-.64-.3-.95-.22-.64-.31-1L45,41.7q.13,1-.06,1c-.1.05-.19-.09-.28-.41a3.18,3.18,0,0,1-.13-.88c0-.55.16-.75.47-.61v-.07c0-.23.14-.34.41-.34a.32.32,0,0,0-.2-.34,1.26,1.26,0,0,0-.1-.44,1.07,1.07,0,0,1-.11-.38l.21-.51a4,4,0,0,0,.2-.51,1.56,1.56,0,0,0-.17-.57c-.11-.25-.15-.42-.1-.51a.26.26,0,0,1,.14-.24c.09-.07.13-.13.13-.17s0-.31,0-.51a2.57,2.57,0,0,1,0-.72,12,12,0,0,1,.89-3.67,27.1,27.1,0,0,1,1-3.13,6.25,6.25,0,0,1,.47-1.49c.09-.18.2-.37.31-.55s.21-.36.31-.54.09-.57.13-1a3.81,3.81,0,0,1,.21-1l.81-1.22a5.3,5.3,0,0,1,.44-.75,6.76,6.76,0,0,0,.45-.75,1.93,1.93,0,0,1,.47-.58,2,2,0,0,0,.41-.44c0-.09-.07-.14-.2-.14a.64.64,0,0,1,.34-.64,5.81,5.81,0,0,1,1-.38,2.2,2.2,0,0,0,.92-.41l.2-.27s-.06-.09-.17-.13a1,1,0,0,1-.3-.21,1.54,1.54,0,0,1-.75-.34c-.14-.13,0-.27.27-.41.09,0,.18.12.27.34s.23.23.41,0c0,0,0-.26.07-.64s0-.56-.14-.51l-.41.47v-.34a3,3,0,0,0-.06-.88l-.28.07c-.5,0-.65-.11-.47-.34a4.32,4.32,0,0,1,.47-.38,2.4,2.4,0,0,1,.55-.3,1.67,1.67,0,0,1,.81-.34,5.15,5.15,0,0,0,.48-.27.38.38,0,0,0,.24.2.84.84,0,0,1,.24.14s.09-.06.13-.17a.26.26,0,0,1,.27-.17l1.5.07a3.52,3.52,0,0,0,.75-.07.66.66,0,0,0,.3-.1.71.71,0,0,1,.24-.11,2.49,2.49,0,0,1,1.06.51,5.41,5.41,0,0,0,.71.51c1.59,1,3,1.88,4.22,2.79A7.78,7.78,0,0,1,65.76,20q.75,1.26,1,1.53a7.6,7.6,0,0,1,.4,1.09,4,4,0,0,1,.21,1.09c0,.18,0,.27-.14.27s-.29-.16-.47-.47a3.36,3.36,0,0,1-.51-.89,7.74,7.74,0,0,1-.31-.75,4.07,4.07,0,0,0-1.16-1.9,11.75,11.75,0,0,0-1.63-1.43,9.87,9.87,0,0,1-.78-.68,9.59,9.59,0,0,0-1-.81,3.34,3.34,0,0,0-1.3-.55,6.38,6.38,0,0,0-1.39-.3c-.34,0-.47.08-.37.3a1.89,1.89,0,0,0,.44.14c.2,0,.33.11.37.2a.83.83,0,0,1,.31.38c.07.16.28.23.64.23,0,.23,0,.36.11.38a1.08,1.08,0,0,0,.37,0,.84.84,0,0,1,.41,0,.88.88,0,0,1,.61.45,4.67,4.67,0,0,1,.2.5c.09.1.16.17.21.24a1.26,1.26,0,0,0,.2.24.15.15,0,0,0,.21,0c0-.07.09-.11.13-.11a7.46,7.46,0,0,0,.72.51,1.32,1.32,0,0,1,.64,1.13q-.13,0-.27-.21a.27.27,0,0,0-.34-.13c.09-.05.1-.1,0-.17s-.12-.06-.17,0l.21,1c-.18,0-.41-.16-.68-.48a2.05,2.05,0,0,0-.61-.54,3.13,3.13,0,0,0-.55-.27,1.71,1.71,0,0,1-.68-.61,5.57,5.57,0,0,0-1.09-1.23l-.2-.2c-.14,0-.22-.11-.24-.21s-.17-.13-.44-.13c.09-.05.09-.09,0-.14s-.16,0-.2,0,.21.31.78.79a8.85,8.85,0,0,1,1.12,1c.32.5.45.82.41,1a.28.28,0,0,1-.21.07c-.18,0-.38-.19-.61-.58a5.15,5.15,0,0,0-.47-.71,3.15,3.15,0,0,0-.51-.41,3.79,3.79,0,0,1-.58-.48,2,2,0,0,1-.65-.51,2.4,2.4,0,0,0-.64-.51h-.28a1.56,1.56,0,0,0-1.08.27.91.91,0,0,0-.17.28c-.07.13-.15.2-.24.2a.4.4,0,0,1-.07.27h-1c-.27.09-.41.21-.41.34s.14.11.41.17a2.61,2.61,0,0,0,.54.1c.73,0,1.09.32,1.09.82a1.5,1.5,0,0,1-.75,1.16,7.67,7.67,0,0,0-1.73,1.73q-.72,1-1.8,2.82a13.34,13.34,0,0,0-1.09,3.06,12.21,12.21,0,0,0-.48,1.43,26.76,26.76,0,0,0-.95,2.72,7.26,7.26,0,0,1-.34,1.63L49,35.31a1.24,1.24,0,0,1-.21.27.45.45,0,0,0-.13.34A5.73,5.73,0,0,0,48.56,37l.07,1.9v1.4A6,6,0,0,0,49,42.38a16.12,16.12,0,0,0,1.49,3.44,2.59,2.59,0,0,0,2.32,1.32,3.13,3.13,0,0,0,1.73-.61c.61-.41,1-.68,1.26-.82a11.78,11.78,0,0,0,2.72-2.1c.31-.37.65-.8,1-1.3s.68-.9,1-1.22c.09-.14.24-.34.44-.61a8,8,0,0,0,.58-.89,6.31,6.31,0,0,1,.1-.75c.07-.4.17-.63.31-.68s.09.31,0,1.06-.14,1.19-.14,1.32a.56.56,0,0,1,.34.07c-.23-.22-.2-.68.07-1.36L62.64,38c.09-.27.2-.73.34-1.36a3,3,0,0,0,.13-1.09.73.73,0,0,1,.21.54,8,8,0,0,1-.55,3.07c0,.09-.16.35-.34.78s-.29.64-.34.64v.14c0,.23-.07.36-.2.41a2.66,2.66,0,0,0-.34.61c-.18.23-.4.51-.65.85s-.44.62-.58.85a3.64,3.64,0,0,0-.68.78c-.22.34-.18.49.14.44.09,0,.24-.1.44-.3a3.83,3.83,0,0,1,.51-.44.84.84,0,0,1,.41-.21,2.22,2.22,0,0,0,.41-.13,4,4,0,0,0,1.15-1.5,7.61,7.61,0,0,0,.75-1.5l.27-.68c-.09.32,0,.52.28.61.09.05.23-.26.44-.91a3.33,3.33,0,0,0,.24-1.19,1.22,1.22,0,0,0-.17-.45c-.12-.2-.11-.35,0-.44s.27.08.41.38.22.42.27.37.14-.11.14-.34l-.07-.68a.36.36,0,0,1,.17-.24c.07,0,.1-.08.1-.17a1.41,1.41,0,0,0,0-.54,1.48,1.48,0,0,1,0-.55.61.61,0,0,1,.13-.33.7.7,0,0,0,.14-.34,3,3,0,0,0,.07-.75c0-.23,0-.54-.07-.92a2.79,2.79,0,0,1,0-.92,2.16,2.16,0,0,1,.27-.82,2.15,2.15,0,0,0,.27-.74c.18-.09.28.56.28,2q0,.27.06,1t.21.78c.09,0,.13-.13.13-.4v-.58a1,1,0,0,1,.07-.51,1.4,1.4,0,0,1,.1-.31c.07-.16.15-.21.24-.17a4.68,4.68,0,0,1,.14-1.05,1.54,1.54,0,0,0,.07-.71,3.57,3.57,0,0,0-.31-1,2.54,2.54,0,0,1-.24-1.22.38.38,0,0,1,.24-.07.38.38,0,0,0,.24-.06s0-.11-.14-.18-.13-.12-.13-.17a1.41,1.41,0,0,0-.17-.47.88.88,0,0,1-.11-.61,1.12,1.12,0,0,1,.24-.58c.11-.11.24-.06.38.17V27a1.87,1.87,0,0,1-.34.81.58.58,0,0,0,.34.17.35.35,0,0,1,.27.17A1,1,0,0,1,68.08,28.51ZM44.75,40.14c.09.13.07.18-.07.13s-.13,0-.13-.13S44.66,40,44.75,40.14Zm.1.37a.88.88,0,0,1,0-.24.31.31,0,0,1,.2.34A.16.16,0,0,1,44.85,40.51Zm.65-13.43.2.14C45.52,27.4,45.45,27.35,45.5,27.08Zm.14,14.28a.57.57,0,0,0,.2.41c.14.14.25.18.34.14a.12.12,0,0,1,.07-.11.11.11,0,0,0,.07-.1,2.81,2.81,0,0,0-.24-.34c-.12-.14-.22-.2-.31-.2S45.64,41.22,45.64,41.36Zm2.24-7.21a25.43,25.43,0,0,1,.75-3.06c.09-.27.19-.64.3-1.12a5.81,5.81,0,0,1,.45-1.26c.09,0,.13-.06.13-.2l-.13.07.2-.28c0-.18,0-.29-.14-.34a.58.58,0,0,0-.23.34c-.07.19-.06.32,0,.41h.07l-.61.55c-.05.22-.1.45-.14.68s-.09.45-.14.68a3.25,3.25,0,0,0-.27,1,7.51,7.51,0,0,1-.13.85c0,.09,0,.42-.11,1s-.21.85-.44.85a4.3,4.3,0,0,0-.07-1.36.25.25,0,0,0-.17.31,1.85,1.85,0,0,1,0,.3l-.21.07c-.13,0-.2-.09-.2-.27a1.43,1.43,0,0,1,.07-.48,1.37,1.37,0,0,0,.07-.34,3,3,0,0,1,.23-.78,2.71,2.71,0,0,0,.24-.78l.07-.89a.42.42,0,0,0,.2-.17.29.29,0,0,0,.07-.17.86.86,0,0,0-.27.27l.07-.95c-.09.05-.15.22-.17.51s0,.47,0,.51c-.36.37-.54.59-.54.68s-.09.51-.14.85a3.32,3.32,0,0,1-.2.85c-.05.23-.15.62-.31,1.16a7.78,7.78,0,0,0-.3,1.63c0,.14-.11.28-.17.44a1.26,1.26,0,0,0-.11.51.68.68,0,0,0,.07.27.61.61,0,0,1,.07.28.56.56,0,0,1,.07.34,1.06,1.06,0,0,0-.14.68l.07-.07a22.22,22.22,0,0,0-.14,2.45c0,.45,0,.68.14.68s.26-.38.37-1a9.29,9.29,0,0,0,.17-1.8l-.06-.61-.21-.34L46.38,36a5.77,5.77,0,0,1,.07-.71c0-.3.09-.56.14-.79a1,1,0,0,1,.24-.51c.15-.2.3-.1.44.31-.14,0-.29.32-.44,1.09a10.42,10.42,0,0,0-.24,2.11c0,.36,0,.54.13.54s.14-.16.14-.48a4.43,4.43,0,0,1,.07-.85c0-.25.16-.35.34-.3,0,.18,0,.47-.07.88a12.79,12.79,0,0,0-.07,1.5c0,.5,0,.77.14.81l.13.07c.05,0,.07-.11.07-.34A30.11,30.11,0,0,1,47.88,34.15Zm-1.77,2.93a1.6,1.6,0,0,1-.27.61l.07-.48v-.13C46,37,46.07,37,46.11,37.08Zm0-11.22c-.16,0-.22,0-.17-.07l.2-.07C46.32,25.81,46.3,25.86,46.15,25.86Zm0,17.13c.15,0,.17-.07,0-.2l-.2.07C45.93,43,46,43,46.15,43Zm0,2.89c-.16,0-.22.06-.17.11l.2.06C46.32,45.92,46.3,45.86,46.15,45.88Zm.17-20.64q.2-.06.27,0Q46.38,25.45,46.32,25.24Zm.4,18.88c-.22-.48-.31-.74-.27-.79a.38.38,0,0,0-.13.28,3.32,3.32,0,0,0,.88,1.49Zm-.2.47a1.1,1.1,0,0,0,.54.65l-.74-1.5A2.28,2.28,0,0,0,46.52,44.59Zm.07-5.13a.19.19,0,0,0,.13.27c.09,0,.15,0,.17-.17s0-.26-.1-.31S46.63,39.32,46.59,39.46Zm.2.78a.22.22,0,0,0-.07-.17s0,.09-.13.13C46.72,40.3,46.79,40.31,46.79,40.24Zm.07-1.74-.14-.13C46.63,38.64,46.68,38.69,46.86,38.5Zm.68-3.19c0,.72-.09,1.09-.27,1.09a4.57,4.57,0,0,0-.1-.75,1.07,1.07,0,0,1,.1-.82,4.38,4.38,0,0,1,0-.47c0-.18.08-.14.17.13A2.53,2.53,0,0,1,47.54,35.31Zm-.14,10.2s-.11-.07-.2-.21C47.15,45.44,47.22,45.51,47.4,45.51Zm-.13-21.9c.09-.13.13-.16.13-.07a.31.31,0,0,1-.06.21C47.34,23.66,47.31,23.61,47.27,23.61Zm.07,17.27c.09,0,.14-.15.17-.47s0-.43-.17-.34a.26.26,0,0,0-.07.2Zm.13,4.56c0-.14-.09-.2-.13-.2S47.47,45.4,47.47,45.44Zm0-22.61c.11-.2.21-.26.3-.17v.21a.39.39,0,0,1-.2.33C47.43,23.16,47.39,23,47.51,22.83Zm0,7.24.07-.07v.07ZM48.53,22c-.3.45-.54.68-.72.68a2.28,2.28,0,0,1,.38-1.05c.24-.43.51-.65.78-.65A2.23,2.23,0,0,1,48.53,22ZM49,21c0-.09,0-.15.07-.17a.49.49,0,0,1,.2,0C49.24,20.89,49.15,21,49,21Zm.51-.34c-.07.14-.15.18-.24.14s.07-.27.2-.27S49.55,20.49,49.48,20.62Zm-.17,8.09.07-.13v.13Zm1.19-8.19c0-.11.08-.15.17-.1v.34C50.53,20.71,50.47,20.63,50.5,20.52Zm.58-.31c0,.18-.1.25-.41.21C50.67,20.28,50.8,20.21,51.08,20.21ZM56,49.59c-.13-.05-.18-.11-.13-.21l.27.14C56.15,49.61,56.11,49.63,56,49.59Zm4.25-32.3c-.07.13-.15.18-.24.13s0-.27.21-.27S60.29,17.15,60.22,17.29ZM62,44c0,.09.07.13.21.13a1.22,1.22,0,0,0,.41-.07c-.28-.27-.44-.38-.48-.34A.4.4,0,0,0,62,44Zm.21-22.11a.69.69,0,0,1,.3.62c0,.22-.1.34-.23.34s-.21-.16-.21-.48A.34.34,0,0,1,62.23,21.84Zm-.07-.68.07-.2C62.36,21.28,62.34,21.35,62.16,21.16ZM62.64,36v.34a.86.86,0,0,1-.07.34.33.33,0,0,1-.21.07.28.28,0,0,1-.2-.07V36.6a1.87,1.87,0,0,1,.14-.71,4.49,4.49,0,0,1,.2-.51A.53.53,0,0,1,62.64,36ZM62.4,23.14c-.12-.05-.15-.12-.1-.21a.26.26,0,0,1,.34.21S62.51,23.18,62.4,23.14Zm.71,6.32c.09,0,.14.57.14,1.7A10.41,10.41,0,0,1,63,33.27V34a3,3,0,0,1-.06.74l-.24.24c-.12.12-.22.08-.31-.1a.45.45,0,0,1-.13-.34,1.81,1.81,0,0,1,.13-.58,4,4,0,0,1,.21-.51,2.16,2.16,0,0,0,0-.64q0-.37,0-.51a2.73,2.73,0,0,1,.17-.92,2.83,2.83,0,0,0,.17-.78A4,4,0,0,1,63.11,29.46Zm-.68-11.15a.23.23,0,0,1,.21-.14v.34C62.45,18.47,62.39,18.4,62.43,18.31Zm.55.2v.27c-.23,0-.34-.09-.34-.27Zm-.24,6a.21.21,0,0,1,0-.21c0,.09.07.14.21.14C62.84,24.57,62.76,24.59,62.74,24.5ZM63,19c-.16-.06-.17-.12,0-.17a.4.4,0,0,1,.27.14Q63.25,19.06,63,19Zm.24,8.27a.23.23,0,0,1,0,.23c0,.07-.09.11-.14.11s-.24-.19-.17-.44.15-.36.24-.31A.3.3,0,0,1,63.25,27.22Zm-.17,16.22a.56.56,0,0,0-.1.3s0,.07.06.07.25-.11.48-.34a.1.1,0,0,1-.1-.07s-.06-.07-.1-.07S63.15,43.32,63.08,43.44ZM64.4,41.6a.24.24,0,0,1,.07-.17s-.07-.14-.2-.27c-.09,0-.21.26-.34.64a1.36,1.36,0,0,0-.14.72.2.2,0,0,0,.21,0l-.21.27c0-.23,0-.34-.13-.34s-.27.11-.38.34,0,.32.24.27.57-.43.75-1.15l.07-.14A.25.25,0,0,0,64.4,41.6Zm-.61-20.84h.07q.27,0,.27.54h-.27a.24.24,0,0,1-.07.2l-.34,0c-.18,0-.25-.06-.2-.24a.82.82,0,0,1,.47-.14ZM63.38,22a.17.17,0,0,1-.13-.07c.27-.09.34,0,.2.14C63.45,22,63.43,22,63.38,22Zm.41-2.58c.09.09.09.16,0,.2.14,0,.23,0,.27.07a.24.24,0,0,1,.07.2c-.23,0-.34-.09-.34-.27h-.13l-.07-.14C63.63,19.33,63.7,19.31,63.79,19.4Zm-.13,3s.06,0,.06.14S63.61,22.62,63.66,22.39Zm.47-1.09h.07q.27,0,.27.54c-.5,0-.72-.11-.68-.34C64,21.5,64.13,21.44,64.13,21.3ZM64,23.54c0-.09,0-.06.17.07,0,0-.07.05-.07.14A.46.46,0,0,1,64,23.54Zm0,19a3.08,3.08,0,0,0,.13-.34,1.6,1.6,0,0,1,.21-.41l-.07.14A1.6,1.6,0,0,1,64,42.52ZM64.1,37a.23.23,0,0,1,.2-.2c.11,0,.17,0,.17.17s-.07.27-.2.27S64.07,37.09,64.1,37Zm0-17c0-.14.06-.17.17-.1a.43.43,0,0,1,.21.27q0,.16-.24.24C64.18,20.42,64.13,20.28,64.13,20Zm0,4.52c0-.11.07-.17.17-.17a.23.23,0,0,1,.1.27c0,.14-.08.18-.17.14A.19.19,0,0,1,64.17,24.53Zm0-2.34a.12.12,0,0,0,.1-.07c0-.05.08-.07.17-.07v.34C64.29,22.39,64.2,22.32,64.2,22.19Zm.48,18.42c0-.22,0-.3-.11-.24a.67.67,0,0,0-.13.34c0,.16,0,.2.17.11A.33.33,0,0,0,64.68,40.61Zm0-18.6c-.05.12-.12.13-.21,0v-.21C64.65,21.84,64.72,21.9,64.68,22Zm.06,1c-.09-.2-.18-.41-.27-.64a.13.13,0,0,1,.14-.14c.13,0,.27.12.41.34s.15.34.06.34a.43.43,0,0,1-.13.48A1.38,1.38,0,0,1,64.74,23Zm-.06,3.41a.46.46,0,0,1-.21-.11l.14-.07C64.74,26.4,64.77,26.46,64.68,26.44Zm.1,9.11c0-.12,0-.17.1-.17l.07.13C64.81,35.65,64.75,35.66,64.78,35.55Zm.37-5.82c-.13,0-.19-.16-.17-.34s.08-.28.17-.3.14.1.14.37S65.33,29.73,65.15,29.73ZM65.42,40c.09-.24.16-.46.21-.64a.24.24,0,0,0-.21-.14c-.09,0-.17.11-.23.31a1.62,1.62,0,0,0-.11.51.3.3,0,0,0,.07.47A1.45,1.45,0,0,0,65.42,40Zm-.2-3.26a.43.43,0,0,1,.07.17c0,.05,0,.05-.07,0a.12.12,0,0,1-.14-.14C65.13,36.71,65.17,36.7,65.22,36.77Zm.68-12.89v-.4a4.05,4.05,0,0,1-.48-1c-.27-.68-.34-1.07-.2-1.16a2.55,2.55,0,0,1,.58.92,5.31,5.31,0,0,1,.1,1.26v-.07H66c.13,0,.21.21.24.64s0,.61-.11.52A.56.56,0,0,1,65.9,23.88Zm.95,11.7a2.12,2.12,0,0,0-.13-.54,2.38,2.38,0,0,0-.82,1.29c0,.13-.07.58-.2,1.33s-.12,1.14.06,1.18.4-.35.65-1.18a11.93,11.93,0,0,0,.44-1.81Zm-1.12,4.66c0,.07,0,.06.17,0l-.07-.13A.48.48,0,0,0,65.73,40.24Zm.51-.58a.54.54,0,0,0-.24-.1c-.11,0-.12,0,0,.17Zm.2-13.46a.31.31,0,0,1,0,.13.58.58,0,0,0,0,.21.77.77,0,0,1,0-.89A.52.52,0,0,1,66.44,26.2Zm.48,1.9a12.34,12.34,0,0,1-.14,1.8c-.09.61-.18.92-.27.92s-.23-.52-.27-1.56V29c0-1.27.14-1.91.41-1.91S66.92,27.42,66.92,28.1Zm-.61,6c0,.09,0,.07.13-.07s-.06,0-.06-.13A.24.24,0,0,0,66.31,34.15Zm.88-9.79a.28.28,0,0,1,.21.07C67.08,24.57,67,24.54,67.19,24.36Zm0,6.43c.07-.21.14-.26.24-.17v.27a.4.4,0,0,1-.14.27C67.12,31.12,67.09,31,67.16,30.79Zm.3,2.14s.07.09.21.14l-.14-.21A.06.06,0,0,0,67.46,32.93Z"/><path class="cls-2" d="M79.5,12.6l.07.88a1.78,1.78,0,0,1-.21.95q-.19.21-.27.21c-.23,0-.34-.5-.34-1.5,0,0,0-.19,0-.71s0-1.17,0-1.94c0-1.27,0-1.91-.14-1.91s-.2.91-.2,2.72v1.43c0,.32,0,.61,0,.89a2.08,2.08,0,0,1,0,.68c0,.4-.1.94-.17,1.6a16.82,16.82,0,0,0-.1,1.8,11.25,11.25,0,0,1-.07,1.36q0,.33,0,.78a3.59,3.59,0,0,0,0,.92,3.78,3.78,0,0,1-.1.81,4.47,4.47,0,0,0-.1,1L78,24.77a7.48,7.48,0,0,1-.06,1.15,27.91,27.91,0,0,0-.28,4.7c0,.5,0,1.29-.13,2.38s-.14,1.79-.14,2.38a.51.51,0,0,0,.1.2.45.45,0,0,1,.11.27,1.62,1.62,0,0,1-.11.51,2.12,2.12,0,0,1-.17.44,5.85,5.85,0,0,0,0,1.36,11,11,0,0,1,.1,1.37,2.66,2.66,0,0,0,.1.61,1.22,1.22,0,0,1,0,.61c0,.09-.14.3-.28.65s-.09.55.14.64.41-.63.41-2.45l-.07-2.51c.09-2.18.14-4.13.14-5.85,0-.54,0-1.41.13-2.58s.14-2,.14-2.73a6.33,6.33,0,0,1,.1-.91c.07-.43.17-.67.31-.72l.34-.13c.09,0,.13,0,.13.13a1.1,1.1,0,0,1-.2.45,3.07,3.07,0,0,0-.27.44.09.09,0,0,0,.13.13,3.54,3.54,0,0,1-.07.75c0,.23-.09.43-.13.61s0,.18.07.28a.38.38,0,0,1,.13.27.54.54,0,0,1-.07.27.58.58,0,0,0-.06.2v.41l.06,1.56a1.12,1.12,0,0,1-.06.38.9.9,0,0,0-.07.37c0,.05,0,.09.1.14a.14.14,0,0,1,0,.27c-.07.05-.1.09-.1.14a.33.33,0,0,0,.1.24.29.29,0,0,1,.1.23,14.41,14.41,0,0,1,0,1.7c0,.5,0,.91,0,1.23a4.69,4.69,0,0,0,.21,1A2.63,2.63,0,0,1,79,36.67a4.38,4.38,0,0,0-.06.75c0,.4,0,.84.06,1.29a12.39,12.39,0,0,1,.07,1.36c0,.13,0,.36,0,.68a2.4,2.4,0,0,1,0,.75.91.91,0,0,1-.37.41c-.21.13-.31.22-.31.27-.09.22-.07.36.07.4a.43.43,0,0,1,.27.21.73.73,0,0,1,.17.54,4.1,4.1,0,0,0,0,.41,17.77,17.77,0,0,1,.2,2.65L79,47.89a3,3,0,0,0,.07.75c.41,1.31.45,1.9.14,1.77,0,0-.08-.07-.1-.21S79.05,50,79,50l-.62.07s-.07-.07-.07-.21v-.27c0-.14,0-.23-.13-.27a1.9,1.9,0,0,0-.2.23l-.28.31a6.15,6.15,0,0,1-1,.27,2.28,2.28,0,0,0-.41.21.45.45,0,0,1-.34.1,1.23,1.23,0,0,1-.4-.24,1.59,1.59,0,0,1-.14-.34c0-.14-.09-.2-.14-.2h-.07c-.22,0-.46.19-.71.58s-.51.55-.78.5a.41.41,0,0,1-.34-.27.73.73,0,0,0-.27-.34.29.29,0,0,0-.34.11c-.09.11-.16.14-.21.1s-.27-.55-.27-1.23c0-.41,0-1,.14-1.83a6.13,6.13,0,0,0,.07-1.43l-.21-2a32.94,32.94,0,0,1-.13-3.47c0-.22,0-.62.06-1.19s.07-1.23.07-2a1.61,1.61,0,0,0-.07-.69c.09,0,.18.23.28.55,0-.41-.11-.79-.17-1.16s-.13-.7-.17-1a1.82,1.82,0,0,1,.13-.51,4,4,0,0,1,.21-.51,6.44,6.44,0,0,0,0-1.05q0-.45,0-.78l-.07-1.84c0-.82.07-1.25.2-1.29l.07,1.84a29.2,29.2,0,0,0,.14,4.42,2,2,0,0,0,.54-1.64l-.07-1.77c0-2.53-.07-3.78-.2-3.74s-.21.08-.21.24a.53.53,0,0,1-.06.31s-.16,0-.34-.14a2.75,2.75,0,0,0,.34-1.63c0-.5,0-1-.07-1.39a9.87,9.87,0,0,1-.07-1.13,9.18,9.18,0,0,1,.2-2A11.29,11.29,0,0,0,73,20.82l.07-4c.09-2.58.11-4.46.07-5.64,0-1,0-1.77-.07-2.31L73,6.27A8.65,8.65,0,0,0,72.87,5a8.84,8.84,0,0,1-.17-1.4A1.72,1.72,0,0,1,73,2.4a1.61,1.61,0,0,1,.85-.58,2.56,2.56,0,0,1,.92,0,4.83,4.83,0,0,0,.75.07,1.92,1.92,0,0,0,.61-.07s.08-.05.1-.16a.3.3,0,0,1,.17-.24,2.9,2.9,0,0,1,.81-.07l.62-.14a4.7,4.7,0,0,1,.81-.06c.14,0,.32.29.55.88a4.58,4.58,0,0,1,.34,1.16,9.72,9.72,0,0,1-.17,1.56c-.12.63-.2,1.11-.24,1.43a4,4,0,0,0-.07,1.22,1.17,1.17,0,0,0,.2.55.81.81,0,0,1,.21.33v.21a.72.72,0,0,1-.07.3,1.17,1.17,0,0,0-.07.38v1.29l-.27.48a9,9,0,0,0,.27.88A1.89,1.89,0,0,1,79.5,12.6Zm-6.36,24a1,1,0,0,1-.17-.24c.36-.73.3-.91-.2-.55a2.06,2.06,0,0,0-.27,1.3,4.51,4.51,0,0,1,.06.88l-.06,1.5-.07.95a1.29,1.29,0,0,0,.13.68c.09.13.23.11.41-.07a1,1,0,0,1-.27-.75,1.89,1.89,0,0,1,.07-.57c0-.16.09-.31.13-.45l.28-2.45A.18.18,0,0,0,73.14,36.57Zm-.51,5.2c-.09,0-.13.16-.13.47s.06.44.2.34v-.2A1.55,1.55,0,0,0,72.63,41.77Zm.44,5c0-.59,0-1,0-1.15v-.82c0-1.22-.07-1.84-.2-1.84A7,7,0,0,0,72.7,44c0,.55-.07,1.18-.07,1.91a4.23,4.23,0,0,0,.21,1.9C73,47.69,73.1,47.32,73.07,46.73Zm-.1,2a.4.4,0,0,0-.13-.27s0,.12-.14.21a.44.44,0,0,0,.14.34A.38.38,0,0,0,73,48.7ZM73,26.61l.2.13C73.33,26.61,73.27,26.56,73,26.61Zm.41-4.42a.39.39,0,0,0,.13-.41.48.48,0,0,0-.13-.48A.8.8,0,0,0,73.45,22.19Zm0,1.9c.09,0,.13-.21.13-.61s0-.61-.13-.61-.14.2-.14.61S73.36,24.09,73.45,24.09Zm.13,1.29c0-.27,0-.36-.13-.27a.5.5,0,0,0-.14.37c0,.16.07.2.21.1Zm3.23,1.16c0-.37,0-.64,0-.82s.12-.32.24-.68.14-.57.1-.61c-.14-.36-.23-.55-.27-.55s-.17.15-.24.45a3,3,0,0,0-.1.58c-.14.58-.28.88-.41.88s-.2-.27-.2-.82A8.83,8.83,0,0,1,76,23.65a9.23,9.23,0,0,0,.14-1.33V18.58a9.28,9.28,0,0,1,.24-1.16,3.53,3.53,0,0,0,.1-1.22,1.14,1.14,0,0,1-.07-.41.27.27,0,0,0-.21-.27h-.06q-.21,0-.27.27c-.05.18-.1.28-.14.28h-.07c-.13,0-.2-.19-.2-.55a1.66,1.66,0,0,1,.1-.61c.07-.18.12-.25.17-.21s.11.12.2.34.23.28.41.14l.07-.07a3,3,0,0,0-.14-.34.86.86,0,0,0-.13-.2,11.42,11.42,0,0,1-.41-2.52c0-.36.07-.54.2-.54s.21.18.21.41a.57.57,0,0,0,.2.68l.14.06.07-.06a3.59,3.59,0,0,0-.41-1,.58.58,0,0,0-.24-.31.58.58,0,0,1-.24-.31,1.14,1.14,0,0,1-.07-.54V9.47c0-.36,0-.55-.06-.55s-.21.34-.21,1v1c0,.54,0,.84-.14.88s-.13-.18-.13-.54-.07-.62-.2-.62-.14.39-.14,1.16a15.93,15.93,0,0,0,.07,1.77c0,.27,0,.55,0,.85a3.26,3.26,0,0,1,0,.78,8.74,8.74,0,0,1-.17,1.33A7.85,7.85,0,0,0,74.47,18a15,15,0,0,1-.14,1.7c-.09.82-.14,1.4-.14,1.77,0,.68,0,1.22.07,1.63l.07,1.84a13.08,13.08,0,0,1-.14,1.7,16.27,16.27,0,0,0-.2,2.58,18.69,18.69,0,0,0,.07,1.9l.07,2a14.11,14.11,0,0,1-.21,2.38l-.2.64a2.19,2.19,0,0,0-.07.92c0,.27.1.54.17.81a2.85,2.85,0,0,1,.1.68,7.13,7.13,0,0,1-.23.86,1.37,1.37,0,0,0,0,.91c0,.09.13.27.37.55a4,4,0,0,1,.45.54.38.38,0,0,1-.31.17c-.16,0-.24.15-.24.38s.12.15.34-.07a1.1,1.1,0,0,1,.28.81.73.73,0,0,1-.11.38.28.28,0,0,1-.24.17.24.24,0,0,0-.1-.17c-.07-.07-.12-.06-.17,0l.34.41a.38.38,0,0,0,.24.07.33.33,0,0,1,.24.07v.13a.69.69,0,0,1-.07.34.68.68,0,0,0-.07.27c0,.09,0,.72,0,1.87s.08,1.81.31,1.94c0-.23.09-.59.13-1.09s.07-.88.07-1.15a4.72,4.72,0,0,1,.13-1,4,4,0,0,0,.14-.88,3.42,3.42,0,0,0-.17-.75,2,2,0,0,1-.1-.95,2.42,2.42,0,0,1,.13-.75.93.93,0,0,0,.07-.61,1.88,1.88,0,0,1-.54-.14,1.88,1.88,0,0,0,.3-.71q.18-.57.24-.51a.63.63,0,0,0-.27-.34c-.13-.09-.2-.16-.2-.2s0-.17.23-.24.31-.13.31-.17a1.92,1.92,0,0,0,.07-.61l-.07-1.3a3.11,3.11,0,0,1,.1-.71,2.67,2.67,0,0,0,.11-.71c0-.05,0-.34-.14-.89a.4.4,0,0,1,.07-.24.23.23,0,0,0,0-.23,4.42,4.42,0,0,0-.21-.48,3.26,3.26,0,0,1-.2-.47,6.23,6.23,0,0,1-.14-1.16,7.3,7.3,0,0,1,.14-1.43c.09-.45.17-.66.24-.61s.17-.07.3-.34c0-.05,0-.1-.13-.17a.17.17,0,0,1-.07-.24,1.91,1.91,0,0,0,.2-.47,8,8,0,0,0,.28-1,4.57,4.57,0,0,0,.13-.88.92.92,0,0,1,.2.68c0,.27,0,.63-.06,1.09s0,.7.13.74c0,0,0-.31.17-.81s.26-.84.31-1A4.13,4.13,0,0,0,76.81,26.54Zm-2.48,19a5.66,5.66,0,0,0-.1-1.13,4.16,4.16,0,0,0-.17-.64c-.14,0-.18.36-.14,1.09v.61c0,.36,0,.57.14.61S74.33,46.08,74.33,45.58ZM74.19,38a.33.33,0,0,1,.18-.2c.06,0,.1.06.1.24a.18.18,0,0,1-.21.2C74.17,38.19,74.15,38.11,74.19,38Zm.21,1-.14.21C74.26,39,74.31,38.89,74.4,39Zm.34-1a.22.22,0,0,1,.2-.17c.09,0,.13.15.1.31s-.07.19-.16.1S74.69,38.11,74.74,38Zm.14,11.26c.13,0,.21-.1.23-.31a.41.41,0,0,0-.17-.44.25.25,0,0,0-.2.34C74.74,49.11,74.78,49.25,74.88,49.25Zm-.07-9.66c0-.09.09-.11.13-.06a.32.32,0,0,1,.1.17c0,.06,0,.07-.1,0S74.81,39.68,74.81,39.59Zm.3-26.14c-.11,0-.1,0,0-.17l.2.06A.45.45,0,0,1,75.11,13.45ZM75.9,3.21a1.32,1.32,0,0,0-.41-.85c-.28-.29-.41-.19-.41.31a.65.65,0,0,0,.27.44.77.77,0,0,0,.48.24S75.9,3.3,75.9,3.21Zm-.24,20.88c0,.18-.08.29-.17.34s-.14-.07-.14-.34,0-.41.21-.41A.48.48,0,0,1,75.66,24.09Zm0,1.15a.38.38,0,0,1-.13.41.78.78,0,0,1,0-.88A.46.46,0,0,1,75.62,25.24Zm-.13-2c-.09,0-.14-.2-.14-.61s.05-.61.14-.61.13.21.13.61S75.58,23.2,75.49,23.2Zm.13,9.05q0-.27-.06-.27c-.1,0-.15.1-.17.3s0,.29.17.24Zm-.13-6.05q.2.19,0,.27Q75.28,26.26,75.49,26.2Zm.1-19.28c0-.11,0-.1-.17,0l.07.21A.54.54,0,0,0,75.59,6.92Zm0,1.43c0-.12,0-.11-.17,0l.07.2A.45.45,0,0,0,75.59,8.35Zm.31,11.93a.28.28,0,0,1-.21.07c-.09,0-.09-.07,0-.2Zm-.14-.54c-.09,0-.14-.41-.14-1.23s0-1.09.14-1.09.14.44.14,1.3C75.9,19.4,75.85,19.74,75.76,19.74Zm-.07,1.15c0-.13,0-.18.07-.13l.07.13C75.74,21,75.69,21,75.69,20.89Zm.75,15a.39.39,0,0,1-.21-.34,2.35,2.35,0,0,1,.11-.68,2.24,2.24,0,0,0,.1-.68,1.11,1.11,0,0,0-.14-.47,1.08,1.08,0,0,1-.13-.48,10.16,10.16,0,0,0,.2-1.9,1.45,1.45,0,0,0-.27-1c-.23,0-.34,1-.34,2.79,0,1.17,0,2.13.07,2.85s.07,1.23.07,1.5,0,.54-.07,1.08-.07,1.27-.07,2.18.09,1.56.27,1.7c0-.36.08-.94.1-1.73s0-1.44,0-1.94c0-1,0-1.72.06-2.18A.53.53,0,0,0,76.44,35.85ZM76,10.62q.21-.06,0-.27Q75.84,10.43,76,10.62ZM76,26.23q0-.16.21,0l-.14.21A.38.38,0,0,1,76,26.23Zm0,18.36q0,.16.21,0L76,44.35A.38.38,0,0,0,76,44.59ZM76.27,9.4c0,.09,0,.09.17,0l-.07-.2A.42.42,0,0,0,76.27,9.4Zm.65,8.16c.13-.09.13-.2,0-.34C76.78,17.31,76.78,17.42,76.92,17.56Zm.13-2.18-.13-.13C76.82,15.52,76.87,15.57,77.05,15.38Zm0,1.5-.13-.2C76.82,17,76.87,17,77.05,16.88Zm.27,10.47c0-.18,0-.26-.13-.23a.23.23,0,0,0-.17.2c0,.11,0,.19.17.24S77.32,27.49,77.32,27.35Zm0,1.5c0-.18,0-.26-.13-.24a.23.23,0,0,0-.17.21c0,.11,0,.17.17.17S77.32,28.94,77.32,28.85Zm0,1.22a.92.92,0,0,0-.07-.41.45.45,0,0,0-.13.31.43.43,0,0,0,.13.31A.33.33,0,0,1,77.32,30.07Zm-.17-1.94c0,.12,0,.11.1,0v-.2A.55.55,0,0,0,77.15,28.13ZM77.53,43a.19.19,0,0,0-.1.1s0,.09,0,.14.11-.09.2-.28c0,0,.11,0,.17-.06a.42.42,0,0,0,.11-.21l-.28.21.14-.41a.3.3,0,0,0-.17.24.27.27,0,0,0,0,.23L77.6,43S77.57,42.94,77.53,43Zm.41,3.77a1.82,1.82,0,0,0-.07-.61q-.14,0-.21.48c0,.31,0,.43.14.34Zm-.28-3.87v0Zm.75-3.3a.29.29,0,0,0-.2.2c0,.12,0,.2.13.24s.21-.09.21-.27S78.5,39.54,78.41,39.56Zm-.1-6a.33.33,0,0,0,.24-.07.33.33,0,0,0-.21-.07C78.21,33.56,78.2,33.61,78.31,33.61Zm-.07,1a.69.69,0,0,0,.1.52.26.26,0,0,0,.21-.35.34.34,0,0,0-.14-.4C78.32,34.27,78.26,34.35,78.24,34.59Zm.44-13.09a4.13,4.13,0,0,0,.17,1,1.5,1.5,0,0,1,.11.74q-.08.48-.21.48c-.13,0-.2-.39-.2-1.16a2.78,2.78,0,0,0,0-.51,1.62,1.62,0,0,1,0-.44.33.33,0,0,1,.24-.27S78.68,21.41,78.68,21.5Zm.11-2.17c.15,0,.26.13.3.41s-.09.39-.27.37-.27-.15-.27-.37S78.63,19.33,78.79,19.33Zm0,21.79c.09,0,.09,0,0-.1h-.2A.34.34,0,0,0,78.75,41.12ZM78.62,6.48c0,.13,0,.13.13,0l-.07-.14S78.62,6.34,78.62,6.48ZM79,25.24c0,.1-.1.12-.24.07V25C78.93,25.09,79,25.15,79,25.24Zm0,17.31c-.07.11-.15.15-.24.1a.18.18,0,0,1,.21-.2C79.05,42.4,79.06,42.44,79,42.55Zm.17-23.9c-.14,0-.2-.14-.2-.41a2.81,2.81,0,0,1,.06-.65,1.23,1.23,0,0,0,.07-.3v-.07a2.64,2.64,0,0,0-.13-.78,2.3,2.3,0,0,1-.14-.72.42.42,0,0,1,.47-.47l.21.07a7,7,0,0,1,0,1.49,10.54,10.54,0,0,1-.23,1.84Zm-.14,2a2.55,2.55,0,0,1-.13.37.71.71,0,0,1-.07-.34c0-.14,0-.23.07-.27S79.07,20.5,79,20.66Zm.62-12.82s0,.09-.11.13-.12,0-.17,0,.07-.16.21-.2A.06.06,0,0,1,79.64,7.84Z"/><path class="cls-2" d="M108.77,23.34a5.33,5.33,0,0,1,.1,1l-.06.34s-.07.05-.07.14a21,21,0,0,1-.61,4,3.83,3.83,0,0,1-.31.92,3.69,3.69,0,0,0-.31.92,4.9,4.9,0,0,1-.4,1.76l-.75,2-.55,1.36-.74,1.57-.75,1.49c-.09.19-.18.39-.27.62s-.21.47-.34.74-.32.5-.55.82a7.11,7.11,0,0,0-.47.75A43.53,43.53,0,0,1,97.59,48a5.6,5.6,0,0,1-1.7,1.15.75.75,0,0,1-.38-.17.47.47,0,0,0-.44-.1.66.66,0,0,0-.37.1c-.12.07-.26.15-.45.24a3.77,3.77,0,0,0-.3.34.87.87,0,0,1-.38.27.82.82,0,0,1-.47.1,4.26,4.26,0,0,1-.48-.17,4.33,4.33,0,0,1-.92-.34,5.39,5.39,0,0,0-.85-.34l-.37,0a.38.38,0,0,1-.31-.17l-.06-.14q0-.14.27-.27c.18-.09.27-.16.27-.2A11.72,11.72,0,0,0,93,45.85l1.26-1.5a13.36,13.36,0,0,0,1.46-2l.95-1.7a45,45,0,0,1,2.66-4.69,1.11,1.11,0,0,1,0,.31.55.55,0,0,0,0,.17v.13l.34-.81a.28.28,0,0,1-.27.2,4.27,4.27,0,0,1,.34-1.6c.22-.56.36-.91.4-1a10.31,10.31,0,0,0,.68-1.84c.09-.31.21-.65.34-1a8.09,8.09,0,0,0,.34-1.15c.09-.73.14-1.18.14-1.36a2.73,2.73,0,0,1,.2-.65c.09-.2.16-.35.21-.44a11.69,11.69,0,0,0,.1-2c0-.77,0-1.29,0-1.57a11,11,0,0,0-.14-1.63,2.18,2.18,0,0,0-.48-1.22.91.91,0,0,0-.81-.41c-.77,0-1.84.84-3.2,2.52A22.25,22.25,0,0,0,93.1,30a29.43,29.43,0,0,0-2.25,9.32l-.06,1.43a9.87,9.87,0,0,0-.14,1.49c0,.23,0,.8-.07,1.71a13.71,13.71,0,0,1-.34,2.51q0,.13,0,.54t-.24.48a1.65,1.65,0,0,1-.61.14c-.36,0-.64.07-.82.07a2.75,2.75,0,0,1-.88.13,1.27,1.27,0,0,1-.68-.13,3.46,3.46,0,0,1-.65-.41c-.38-.28-.53-.23-.44.13h-.14c-.09,0-.17.09-.23.28s-.15.27-.24.27-.3-.16-.61-.48a1.64,1.64,0,0,1-.51-.85,2.94,2.94,0,0,1-.07-1q0-.51,0-.78c0-.18,0-.42,0-.72a2.2,2.2,0,0,0,0-.71A1.33,1.33,0,0,0,84,43a1.32,1.32,0,0,1-.1-.47l.27-1.09a1.56,1.56,0,0,0,0-.61,1.56,1.56,0,0,1,0-.68,6.24,6.24,0,0,1,.27-.89,2.82,2.82,0,0,0,.21-1,.66.66,0,0,1,.06-.27.54.54,0,0,0,.07-.27l-.13-.75c0-.18-.15-.5-.31-.95a1.38,1.38,0,0,1,0-1.09l.2-.2s.08.13.1.41.1.43.24.47.14-.18.14-.68c0-.82-.05-1.22-.14-1.22-.09.18-.23.4-.41.68a2.07,2.07,0,0,1-.47.54q-.21-.13-.21-.27a.66.66,0,0,1,.14-.34.72.72,0,0,0,.13-.27A10.42,10.42,0,0,0,84,33a8.63,8.63,0,0,1-.07-1.12c0-.22,0-.61-.07-1.15s-.07-1.12-.07-1.7,0-.69.14-.69.07.07.07.21,0,.27-.07.54,0,.41.2.41a6.71,6.71,0,0,0,.41-.54c-.14-.09-.24-.38-.31-.85s0-.76,0-.85a.85.85,0,0,1,.51-.31,1.21,1.21,0,0,0,.51-.24.56.56,0,0,0,.07-.34,9.36,9.36,0,0,0,.23.92,3.23,3.23,0,0,1,.17.92,3.22,3.22,0,0,1,.07.95c0,.32,0,.5-.07.54s-.23.15-.3,0a.23.23,0,0,1,0-.31h-.13s-.12.16-.21.48v.68c0,.36.11.83.21,1.39a8.83,8.83,0,0,1,.13,1.19c.14,0,.24-.1.31-.3a1.14,1.14,0,0,1,.17-.38.35.35,0,0,0-.1-.17.2.2,0,0,1,0-.24l.27-.4.21-.34a9.57,9.57,0,0,0,.2-2.25,7.52,7.52,0,0,0-.2-2,.21.21,0,0,0-.21,0,.19.19,0,0,1-.2,0,.32.32,0,0,1,0-.27.91.91,0,0,0,0-.41v-.2c0-.14.07-.61.21-1.43a.68.68,0,0,0-.07-.2q-.08-.13,0-.21a.38.38,0,0,1,.13-.27c.09-.09.14-.16.14-.2a4.65,4.65,0,0,1,.07-.68,10.63,10.63,0,0,0,.07-1.3,1.22,1.22,0,0,0-.14-.74.43.43,0,0,0-.27.1c-.09.07-.16,0-.21-.1s-.13-.18-.27-.55l.07-1.83c0-1-.07-1.57-.2-1.57s-.21.52-.21,1.7A18.09,18.09,0,0,1,85.07,21a3.74,3.74,0,0,1-.17.54,1.78,1.78,0,0,0-.1.55.89.89,0,0,1,.21.34l-.21.2c0,.23.1.46.17.68a2.29,2.29,0,0,1,.1.68h.07v.68a.59.59,0,0,0-.2.34l.13.27q0,.4,0,.75a1.09,1.09,0,0,0,0,.48,1.19,1.19,0,0,1-.64-.85A8.45,8.45,0,0,1,84.19,24v-.2l-.07-1V19.67c0-2.54-.07-3.79-.2-3.74s-.14.54-.14,1.63c0,1.77.07,3.51.21,5.24-.19,1.22-.16,1.7.06,1.42l.07,1A4.65,4.65,0,0,1,84,26.81h-.14c-.32,0-.48-.32-.48-.95l.07-.82a37.47,37.47,0,0,0-.07-3.81l-.06-2.72A34.79,34.79,0,0,1,83.44,15a13.59,13.59,0,0,0-.07-1.53c0-.43-.09-.81-.13-1.13a18.73,18.73,0,0,1-.14-1.9c0-.5.05-1.29.14-2.38l.07-2.38a1,1,0,0,0-.11-.47,1.21,1.21,0,0,1-.1-.48l-.07-1a2.47,2.47,0,0,1,.68-1.91,1.2,1.2,0,0,1,.89-.47,3.85,3.85,0,0,1,.68.13s.11.06.2.17a.35.35,0,0,0,.27.17c.09,0,.15-.07.17-.2s.06-.2.11-.2h.06s.07.09.07.27c0,.4.07.61.21.61s.13-.28.13-.71A3.92,3.92,0,0,1,86.57.7a2.48,2.48,0,0,1,.75.68A1,1,0,0,0,87.45,1a1.66,1.66,0,0,1,.21-.55,1.32,1.32,0,0,1,.71-.4A.8.8,0,0,1,89,.15a1.67,1.67,0,0,1,.61.89,3.53,3.53,0,0,1,.2,1.15,19,19,0,0,1-.06,2.72c0,.5-.07,1.27-.07,2.31a1.57,1.57,0,0,0,.13.55,1.64,1.64,0,0,1,.14.54,1.63,1.63,0,0,1-.14.55,1.45,1.45,0,0,0-.13.47,1.29,1.29,0,0,1,.2.48,2.78,2.78,0,0,1,0,.75,4.55,4.55,0,0,0,0,.61c0,1,0,1.86-.07,2.45s0,1.83-.13,3.46l-.07,1.77a5,5,0,0,0,.1.95c.07.37.13.66.17.89,0,0,0,.08-.13.1s-.14.06-.14.1a2.25,2.25,0,0,0,.2.34c.09.14.12.23.07.27a.7.7,0,0,1-.17.24.28.28,0,0,0-.1.17l.07.55a1.37,1.37,0,0,1,.13.54,2.37,2.37,0,0,0,.14.61s.16-.29.61-.74a12.15,12.15,0,0,0,.89-1,2,2,0,0,0,.3-.44,2,2,0,0,1,.31-.44,1.57,1.57,0,0,1,.47-.27,2.35,2.35,0,0,0,.34-.14,1.2,1.2,0,0,0,.28-.37,3.24,3.24,0,0,1,.13-.31,2.42,2.42,0,0,1,.58-.54,5.16,5.16,0,0,1,.44-.28A5.75,5.75,0,0,1,96,18.31a10.76,10.76,0,0,1,3.54-1.16,7.22,7.22,0,0,0,1.05-.07,8,8,0,0,1,.92-.06l1.23.27,1.83-.07a3.78,3.78,0,0,1,1.63.27,4.76,4.76,0,0,1,1.43,1.63,6.5,6.5,0,0,1,1.09,3.2A5.33,5.33,0,0,0,108.77,23.34Zm-25-7.85a.45.45,0,0,0,.23-.11l-.13-.06C83.74,15.45,83.7,15.51,83.82,15.49ZM84,28a.93.93,0,0,1-.21-.34,1,1,0,0,1,.21-.34,1,1,0,0,1,.13.41Zm0-5.44a4.85,4.85,0,0,1,.13.68,4.92,4.92,0,0,1,.07.68l-.07.14-.07.13L84,22.8Zm.68,7.48c0,.09,0,.09.13,0l-.07-.2A.28.28,0,0,0,84.67,30.07Zm.2-1.36-.14.14A.13.13,0,0,0,84.87,28.71Zm0,7.14c-.09,0-.11.16-.07.34A.3.3,0,0,0,84.87,35.85Zm.48-10.06-.28-.48a2.26,2.26,0,0,1,.07-.61l.14-.13ZM85.14,24l.27-4.08v.41l.07.2-.2,3.67S85.23,24.11,85.14,24Zm.14.2a.26.26,0,0,1,0,.35v-.35Zm.2,1.84c0,.05,0,.11-.13.2v-.47A.38.38,0,0,1,85.48,26.06Zm.41,5.1a.49.49,0,0,1,.34,0C86.05,31.25,85.94,31.25,85.89,31.16ZM86,27.93a.33.33,0,0,1,.07-.24l.06.27C86,28.06,86,28,86,27.93Zm.13-7.51c-.09.09-.09.2,0,.34C86.27,20.71,86.27,20.6,86.09,20.42Zm.41,27.27c.09,0,.14.09.14.27C86.46,47.91,86.41,47.82,86.5,47.69Zm2-32.78c.32.09.41,0,.27-.14Zm.27,7c.19,0,.28-.25.28-.75L89,20.35l.07-1c0-.55-.12-.82-.34-.82h-.07c-.09,0-.14.07-.14.21a1.31,1.31,0,0,0,.1.44,1,1,0,0,1,.11.37c0,.23,0,.67-.07,1.33s0,1,.07,1.05Zm-.13-8.57c0,.1,0,.15.17.17s.1,0,0-.23C88.81,13.32,88.77,13.34,88.68,13.34ZM89,23.1c0-.25-.12-.37-.21-.37s-.13.2-.13.61c0,.86.11,1,.34.41A1.76,1.76,0,0,0,89,23.1Zm5.1-1.39h-.07v-.07c-.14,0-.2.09-.2.27-.32,0-.51.08-.58.24s-.13.28-.17.38a1.41,1.41,0,0,0-.85.44,4.38,4.38,0,0,0-.75.78c-.16.23-.1.27.17.13,0,0,.11,0,.2-.13a2.28,2.28,0,0,0-.61,1.09c0,.45.19.42.58-.1a11,11,0,0,0,1-1.74,7.35,7.35,0,0,0,1-1.09C94,21.91,94.07,21.84,94.12,21.71ZM92.89,23a3.48,3.48,0,0,1-1,.75,14.25,14.25,0,0,1,1.23-1.22h.07Zm1.16-1.29c-.09.09-.14.16-.14.2h-.06C93.94,21.78,94,21.71,94.05,21.71Zm5.1,15.37L99,36.94C98.92,37.26,99,37.3,99.15,37.08Zm.61-1.19c.09-.16.09-.26,0-.31s-.13.05-.13.14l-.07.2C99.6,36.06,99.67,36.05,99.76,35.89Zm.34-1.13c-.22.05-.22.14,0,.28C100.15,35,100.15,34.9,100.1,34.76Zm1.5,2c0-.31-.07-.47-.21-.47a.54.54,0,0,0-.4.27,2.92,2.92,0,0,0-.34.55l-.21,1.63C100.94,38.6,101.33,37.94,101.6,36.8Zm2.72-8a6.73,6.73,0,0,0,.27-1.74,2,2,0,0,1-.1-.51.83.83,0,0,1,0-.44c-.18.09-.36.48-.54,1.15v.34l-.07.28-.2.75-.07.4c0,.23-.1.47-.17.72a7.25,7.25,0,0,0-.17.71l-.21.34v.07a3,3,0,0,0-.34.54c-.54,1.91-.79,2.79-.74,2.65a3.71,3.71,0,0,1-.21.58q-.14.31-.27.72c0,.09,0,.24,0,.44a1,1,0,0,0,.1.58l.13-.07-.13.41a1.08,1.08,0,0,0,.13-.48,13,13,0,0,0,.62-1.32,15.29,15.29,0,0,0,.54-1.47,12.24,12.24,0,0,0,1-3.13C104,30,104.14,29.47,104.32,28.82Zm-2.52,7.24-.07.2v.07q.55-2.25,1.36-5.37Q102.28,34.35,101.8,36.06ZM104,26.4v.48l.27-1.09A.71.71,0,0,0,104,26.4Zm1,9.52c-.09,0-.15,0-.17,0a.13.13,0,0,0,0,.14s.07,0,.07,0Zm3-11.42a15,15,0,0,0,.21-2.18c0-.41,0-.61-.14-.61s-.15.4-.17,1.32a15.33,15.33,0,0,1-.1,1.74,7,7,0,0,1-.14,1.36c-.09.45-.16.82-.2,1.09a7,7,0,0,0-.14.85,2.76,2.76,0,0,1-.27,1c0,.14-.16.49-.34,1.06s-.16,1,.07,1.19c0,.09-.15.26-.31.51a1.23,1.23,0,0,0-.24.57,2.51,2.51,0,0,0-.2,1.16v-.41c-.09-.13-.28.25-.58,1.16s-.37,1.31-.24,1.22.3-.25.48-.61A4.12,4.12,0,0,0,106,34c0-.23.08-.41.1-.55a1.37,1.37,0,0,1,.1-.34.88.88,0,0,1,.21-.54,2.38,2.38,0,0,1,.27-.34l.07-.75v-.2c.09,0,.2-.29.34-.85l.27-1.19c.09-.37.19-.74.31-1.13s.21-.8.3-1.25a4.52,4.52,0,0,0,.14-.72,9,9,0,0,0,.07-1.05c0-.41,0-.61-.14-.61a.13.13,0,0,1,0-.1s0,0,0,0Zm-1.09,6.39a.28.28,0,0,0-.06.2.33.33,0,0,1-.07.21Zm.41-2.24-.41,2.24C106.92,30.21,107.06,29.46,107.24,28.65Zm.21-1.7c0-.19.11-.58.2-1.2a6.31,6.31,0,0,1,.27-1.25l-.68,4.15Z"/><path class="cls-2" d="M110.85,36.8a5.86,5.86,0,0,1-.41,1.57c-.14,0-.21-.32-.21-1.09C110.42,36.24,110.62,36.08,110.85,36.8Zm-.38,2.08c-.07.16-.15.19-.24.1a.26.26,0,0,1,.21-.27C110.53,38.66,110.54,38.72,110.47,38.88Zm.1-2.55s0-.11.07-.34l.21-.54v-.14a.9.9,0,0,0-.11-.41c-.06-.14,0-.29.17-.48s.23-.2.28-.2.09.23,0,.68v.48c0,.63-.19.95-.55.95Zm29.07,12.41s0,.1-.1.24a2.31,2.31,0,0,1-.71.51c-.43.25-.65.39-.65.44a1.13,1.13,0,0,0,.48.2c.27.28-.06.46-1,.55a5.59,5.59,0,0,1-1.8,0,5.18,5.18,0,0,1-2.24-.82c-.14-.09-.37-.26-.68-.51a9,9,0,0,0-1-.65,5.39,5.39,0,0,1-2.24-2,17.08,17.08,0,0,1-2.11-4.49l-.41-1.08c0-.23-.09-.6-.13-1.13a4.53,4.53,0,0,0-.21-1.12,12.19,12.19,0,0,1-.34-1.19c-.18-.7-.31-1-.4-1h-.07q-.21,0-.21.27a2.74,2.74,0,0,0,.34,1.09v.07a2.18,2.18,0,0,1-.23.78,1.23,1.23,0,0,0-.17.78c0-.09-.11-.09-.17,0s-.06.16,0,.21a1.53,1.53,0,0,0,.34-.17c.09-.07.14-.13.14-.17v.13c0,.23-.17.47-.51.71a1,1,0,0,0-.51.79c-.09,0-.19.11-.28.34a1.61,1.61,0,0,0-.13.41c0,.09,0,.13.17.13s.15.05.1.14a1.54,1.54,0,0,1-.14.23.84.84,0,0,1-.13.17,2.06,2.06,0,0,1-.41.79,4.41,4.41,0,0,0-.48.71,13.7,13.7,0,0,1-2.51,3.74,6.51,6.51,0,0,1-2,1.36.39.39,0,0,1-.28.07,1,1,0,0,1-.34-.07.49.49,0,0,0-.34,0,2.13,2.13,0,0,0-.54.24,1,1,0,0,1-.48.17.88.88,0,0,1-.54-.21,1.57,1.57,0,0,1-.41-.4,2.37,2.37,0,0,0-.47-.48,3.21,3.21,0,0,0-.45-.24A2.58,2.58,0,0,1,115,48a.48.48,0,0,1-.2-.24,1,1,0,0,0-.2-.31l-.31,0a.61.61,0,0,1-.37-.17,1.07,1.07,0,0,1-.38-.48,2.43,2.43,0,0,0-.3-.54,5,5,0,0,0-.62-.51,1.59,1.59,0,0,1-.54-.65,4.7,4.7,0,0,1-.31-.58,4.07,4.07,0,0,0-.3-.57c0-.09-.16-.4-.34-.92a3.32,3.32,0,0,1-.21-1.39c0-.41,0-.62.07-.62s.1.07.17.21a.34.34,0,0,0,.31.2q.54,0,.54-1.56a6.16,6.16,0,0,0-.13-1.43,19.72,19.72,0,0,1,.13-3.26q.41-2.38.89-6.06a35.21,35.21,0,0,1,1.49-5.51v-.06a20.29,20.29,0,0,1,1-2.59A8.67,8.67,0,0,1,117,18.72l.34-.21.13-.06h.07c0-.23.09-.34.27-.34l-.07.2.28-.2h-.21c0-.19.07-.28.34-.28l.07-.13c0-.05,0-.11-.14-.17s0-.24.28-.51a1.25,1.25,0,0,1,.64-.38,5.87,5.87,0,0,1,.92-.23,10.08,10.08,0,0,1,1.16-.14,6.76,6.76,0,0,1,2.1.54c.28.09.76.3,1.47.61s1.09.46,1.19.41.12-.17.23-.51.29-.44.51-.3.23.31.14.68a1,1,0,0,0,0,.75.85.85,0,0,1,.58-.34.78.78,0,0,1,.64.13c-.13-.09-.2,0-.2.27s.09.34.27.07a12.08,12.08,0,0,0,.72-1.33c.29-.61.51-.94.64-1a.71.71,0,0,1,.34-.07c.23,0,.41.16.55.48a.83.83,0,0,1,.06.34,3.15,3.15,0,0,1,0,.37.62.62,0,0,0,.1.44.75.75,0,0,1,.55-.34q.14,0,.3.24c.12.16.19.24.24.24-.14,0-.2.09-.2.14s0,.13.06.13.2-.16.45-.48.41-.47.51-.47.4.07.68.34a4.38,4.38,0,0,0,.61.54c.36.37.52.5.47.41a.67.67,0,0,1,.14.48,1.11,1.11,0,0,1-.14.47c-.09.18-.15.32-.2.41a6.42,6.42,0,0,0-.34,1,6.42,6.42,0,0,1-.34,1,10.49,10.49,0,0,1-.48,1.6q-.33.92-.54,1.53a7.83,7.83,0,0,0-.27,2.24v2a4.19,4.19,0,0,1-.1.85,4.06,4.06,0,0,0-.11.92,7.65,7.65,0,0,0,0,1.36c0,.55.07,1,.07,1.36a1.33,1.33,0,0,1-.1.48.5.5,0,0,0,0,.41s0,.1.13.17.14.12.14.17a.84.84,0,0,1,0,.27c0,.09,0,.14,0,.14a1,1,0,0,1,.07.4,2.79,2.79,0,0,1-.07.51,1.14,1.14,0,0,0,0,.58,1.55,1.55,0,0,0,.2.41.7.7,0,0,1,.14.34,1.21,1.21,0,0,1-.07.24.87.87,0,0,0-.07.37,1,1,0,0,0,.1.34,1,1,0,0,1,.11.27v.68a2.57,2.57,0,0,0,.06.55,38.84,38.84,0,0,1,1.43,4.21,1.24,1.24,0,0,1,.1.44,2.47,2.47,0,0,0,.11.51l.47,1.3a.93.93,0,0,0,1.09.34,1.31,1.31,0,0,0,.54-.17,1.24,1.24,0,0,1,.55-.17l1.9.27a.21.21,0,0,1,.07.34.74.74,0,0,0-.14.27,1.47,1.47,0,0,0,.45.27,1.44,1.44,0,0,1,.37.21,1.11,1.11,0,0,1-.14.47.89.89,0,0,0,.41.07A1.07,1.07,0,0,0,139.64,48.74Zm-28.18-15.4c0,.18-.16.43-.48.74a.4.4,0,0,1-.07-.27.86.86,0,0,1,.11-.4c.06-.14.14-.21.23-.21S111.46,33.25,111.46,33.34Zm0-.68c-.18.27-.3.18-.34-.28a4.12,4.12,0,0,1,.27-.61c.14-.27.25-.38.34-.34v.41A1.51,1.51,0,0,1,111.46,32.66Zm.41,9.58c0-.18-.05-.26-.14-.23s-.15.1-.17.23,0,.21.17.21S112,42.38,111.87,42.24Zm.4-12.3a2.26,2.26,0,0,1-.23.85l-.31.64-.07-1.09c0-.45.11-.68.34-.68A.25.25,0,0,1,112.27,29.94Zm.14-.55a.28.28,0,0,1-.34-.07s.07-.2.34-.47a.26.26,0,0,1,.2.27A.25.25,0,0,1,112.41,29.39Zm-.07,14.08q-.2-.21-.27,0Q112.15,43.68,112.34,43.47Zm.34-4.15-.07-.54V38.5l-.06.34a.66.66,0,0,0-.14-.47.24.24,0,0,0,.2-.07c0-.18,0-.48-.06-.88s-.09-.59-.14-.55a1,1,0,0,0-.14.62,2.11,2.11,0,0,0,.14.88l-.07-.07s-.07.11-.07.34a3,3,0,0,0,.11.75c.06.27.12.38.17.34A.56.56,0,0,0,112.68,39.32Zm-.1-11.39a.23.23,0,0,1,.17-.2c.09,0,.14.05.14.23a.19.19,0,0,1-.21.21A.2.2,0,0,1,112.58,27.93Zm1.12,2.82a2.22,2.22,0,0,0-.13-.68,1.21,1.21,0,0,1-.07-.68l-.14.07c-.09,0-.13.07-.13.2l-.14,1a17.23,17.23,0,0,0-.41,2.92l.07.81c-.09,0-.14.07-.14.34a3.32,3.32,0,0,0,.07.65c0,.21.09.28.14.24a1.85,1.85,0,0,0,.1-.92,3.69,3.69,0,0,1,0-.92c0-.31.08-.7.11-1.15a3,3,0,0,1,.17-1,1.56,1.56,0,0,1,.23-.34,1.55,1.55,0,0,0,.24-.34Zm-1,7.31a.15.15,0,0,0,0-.17l-.07.41A2.35,2.35,0,0,0,112.72,38.06Zm.1-3.16-.07-.48h.07Zm.47-8.5-.13-.07C113.48,26.24,113.52,26.26,113.29,26.4Zm2.66-4,.34-.75c.09,0,.13-.07.13-.2h-.07v-.07c-.18.09-.22.18-.13.27a.5.5,0,0,0-.41.48,1.07,1.07,0,0,1-.07.47,1,1,0,0,1-.24.48c-.06.05-.21.05-.44,0s-.22.11-.27.47,0,.48.2.34V24c0,.09-.1.22-.3.38s-.31.28-.31.37v.14a.38.38,0,0,0,.17.27c.12.09.15.18.1.27a.63.63,0,0,0-.51.31,4.08,4.08,0,0,0-.17.85,2.51,2.51,0,0,0-.2.47s.06.13.17.24a.51.51,0,0,1,.17.31.53.53,0,0,0-.44.3,2.78,2.78,0,0,0-.17.51c0,.18-.09.34-.14.48.14.14.21.25.21.34l.54-1.36c.09-.27.25-.82.48-1.63a14.32,14.32,0,0,1,.4-1.43c.18-.36.33-.68.45-.95a3.61,3.61,0,0,1,.3-.62ZM125.74,29q-.13-.24-.27-.24v-.2a.81.81,0,0,1-.07-.38c0-.16,0-.24.07-.24,0-.27.09-.51.13-.71s.09-.37.14-.51l.07-.48a2.72,2.72,0,0,0-.38.82c-.16.45-.3.66-.44.61a7.3,7.3,0,0,1,.27-1.39,5,5,0,0,1,.61-1.53v-.61c0-.23.14-.64.28-1.23a2.11,2.11,0,0,0,0-1.29c-.14-.27-.25-.41-.34-.41s-.21.22-.34.65-.28.62-.41.58a1.77,1.77,0,0,1,.1-.58,1.67,1.67,0,0,0,.1-.51q-.06-.27-.54-.27a3,3,0,0,0-1.06.23,4.26,4.26,0,0,1-.64.24,9.83,9.83,0,0,0-1.84,1.09,6.11,6.11,0,0,0-1.6,2.11,13.69,13.69,0,0,0-1,2.85,8,8,0,0,0-.34,1.57c-.32,1.27-.57,2.33-.75,3.19a6.43,6.43,0,0,1-.3,1.16,3.58,3.58,0,0,0-.24,1.16v.13l.07.55c0,.31-.12.5-.34.54,0,0-.09,0-.14-.24s-.11-.28-.2-.23-.17.14-.11.3a.33.33,0,0,0,.31.24,1.36,1.36,0,0,0,.1.34,3.74,3.74,0,0,1,.17.54v.28a5.65,5.65,0,0,1-.2,1.42l-.07.55a4.27,4.27,0,0,0,.07.75,5.92,5.92,0,0,1,.07.88l-.07,1.09c0,.31.07.47.2.47s.3-.18.61-.54c.09-.09.23-.22.41-.37a2,2,0,0,0,.48-.72.24.24,0,0,1,.17-.07.22.22,0,0,0,.17-.07.8.8,0,0,0,0-.37.7.7,0,0,1,0-.37l.68-1.3a5.2,5.2,0,0,0,.81-1.42q.07-.27.24-1a5.83,5.83,0,0,1,.44-1.22q.68-2,.75-2.31,0-.08.24-1.26c.16-.79.33-1.19.51-1.19.09.27.18.42.27.44s.11-.12.07-.44a1.11,1.11,0,0,1,.47.14c.23-.05.34-.5.34-1.36a2.61,2.61,0,0,0-.2,1H123a8.33,8.33,0,0,1,.44-1.81c.29-.92.53-1.37.71-1.32a3.62,3.62,0,0,1-.13.81,4.49,4.49,0,0,1-.1,1.77c-.16.64-.27,1.05-.31,1.23a4.64,4.64,0,0,1-.34,1.15c-.05.14-.1.32-.17.55a1.94,1.94,0,0,0,0,1c-.13,0-.2,0-.2.14a1.11,1.11,0,0,0,.14.47,1.16,1.16,0,0,1,.13.34.91.91,0,0,1-.41.68.51.51,0,0,0-.2.1c-.09.07-.14.13-.14.17s.16.28.48.41l.2.07c.23,0,.38-.14.45-.41s.1-.43.1-.48c.13-.58.38-1.42.75-2.51l.4-1.43a1.67,1.67,0,0,1,.14-.48,1.53,1.53,0,0,0,.14-.54l.06.61a9.91,9.91,0,0,1-.23,1.87c-.16.75-.29,1.31-.38,1.67a8.23,8.23,0,0,0-.17.81,3.26,3.26,0,0,1-.37,1.09,1,1,0,0,1-.17.24.33.33,0,0,0-.1.24c.13.23.18.38.13.47a.24.24,0,0,1-.2.07c0-.09,0-.12-.1-.1a.4.4,0,0,0-.17.1q0,.08.3.21c.21.09.19.25,0,.47l-.48-.13a.44.44,0,0,0,0,.47.28.28,0,0,0-.2.07.53.53,0,0,1-.21.48l-.2.81a3.78,3.78,0,0,1-.37.68c-.21.32-.24.48-.11.48-.18,0-.22.13-.13.27s.25-.21.47-.78.43-.85.62-.85c0,.09,0,.24,0,.44s.08.33.17.38.35-.37.65-1.23.48-1.49.57-1.9a8.75,8.75,0,0,0,.55-2,2.45,2.45,0,0,1,.13-.34l.14-.28-.27-.2a.32.32,0,0,1,.2-.24c.09,0,.16-.1.21-.23q-.07.14-.21-.75a4,4,0,0,1,.1-.65c.07-.29.13-.51.17-.64a8.54,8.54,0,0,0,.14-1.16c0-.09-.16-.27-.34-.55s-.25-.47-.2-.61l-.07-.06c0-.14.11-.16.2-.07.14-.09.22,0,.24.17s.08.28.17.23S125.83,29.18,125.74,29Zm-9.45-7.38h-.07s0-.11.13-.2A.28.28,0,0,0,116.29,21.64Zm.3,21.25c0-.11,0-.17-.1-.17s-.07.07-.07.2S116.61,43,116.59,42.89ZM116.46,35c0,.09.08.07.17-.07l-.14-.14A.19.19,0,0,0,116.46,35Zm.64-4.15a.26.26,0,0,0,.07-.2C116.94,30.55,116.92,30.62,117.1,30.89Zm.27-1.09c0-.09-.13-.07-.27.07C117.19,30,117.28,29.94,117.37,29.8Zm4.42,3.4a.15.15,0,0,0,.07.21s.09-.07.14-.21S121.84,33.11,121.79,33.2Zm.75,2.79q-.2,0-.51.81a2.51,2.51,0,0,0-.24,1.09.87.87,0,0,0,.14.48,4.53,4.53,0,0,0,.48-1,6.75,6.75,0,0,0,.34-1.12C122.65,36.08,122.59,36,122.54,36Zm-.47-3.47a.82.82,0,0,0-.14.27.4.4,0,0,0,0,.34H122A2.21,2.21,0,0,0,122.07,32.52Zm-.07.61s.1,0,.17-.1,0-.17,0-.17A.38.38,0,0,0,122,33.13Zm.2-1.56a.41.41,0,0,0-.17.34c0,.18,0,.27.17.27s.11-.18.21-.54c0,0,.09-.05.13-.14s0-.16,0-.2l-.13.27v-.48Q122.2,31.17,122.2,31.57Zm.07.07-.07-.07h.07l.07.07Zm.07,0,.07-.07v.07Zm0,0v0Zm1.29,1.56c0,.45-.11.66-.34.61C123.11,33.27,123.22,33.07,123.63,33.2ZM123.9,32c.09-.25.16-.37.21-.37s.06.2.06.61a1.18,1.18,0,0,1-.2.61c-.14.23-.25.34-.34.34v-.88C123.72,32.36,123.81,32.26,123.9,32Zm-.27,5s0,0,.07-.1v.07C123.65,37,123.63,37,123.63,37Zm1.09-11a.94.94,0,0,1-.24.52l-.31.37a.3.3,0,0,1-.06-.2,1.3,1.3,0,0,1,.47-.89C124.67,25.81,124.72,25.88,124.72,25.92Zm-.27,5.61c-.09.21-.19.27-.28.17s0-.13,0-.27a.5.5,0,0,1,.21-.27C124.51,31.21,124.54,31.33,124.45,31.53Zm.13-1,.14.2C124.54,30.89,124.49,30.82,124.58,30.55Zm.41-5.64c0,.13-.11.13-.2,0C124.88,24.81,124.94,24.81,125,24.91Zm.61,11.72c.09,0,.07-.07-.07-.17,0,.1,0,.14-.13.14S125.51,36.66,125.6,36.63Zm-.1,2.08c0,.09.06.07.1-.07l-.07-.14A.24.24,0,0,0,125.5,38.71Zm.51-3.47a.48.48,0,0,0-.14-.34.66.66,0,0,0-.06.27.42.42,0,0,0,.13.28Zm.68-9.18c-.09-.09-.13-.09-.1,0a.34.34,0,0,0,.1.2Zm.71,9.86c-.11,0-.1,0,0,.14l.2-.07A.3.3,0,0,0,127.4,35.92Zm.28.92c0-.11-.06-.15-.11-.1s0,.13-.06.13C127.64,37,127.7,37,127.68,36.84Zm.64-3.3-.07.2a5.08,5.08,0,0,0,.14,1.23q.13.54.27.54l.07-.13-.14-.68C128.5,33.93,128.41,33.54,128.32,33.54Zm.44,3.06c-.06,0-.12,0-.17.14a.17.17,0,0,0,.17,0,.4.4,0,0,0,.17-.1A.21.21,0,0,0,128.76,36.6Zm-.1.68a.37.37,0,0,0,.27.41.54.54,0,0,0,.07-.27.63.63,0,0,0-.13-.34Zm.68,3.26-.2-.27-.41-.47a.92.92,0,0,0,.17.4c.11.19.19.21.24.07C129.14,40.36,129.21,40.45,129.34,40.54Zm-.07-.67a.78.78,0,0,0-.4-.68l-.07.27a1.08,1.08,0,0,0,.41.68A.45.45,0,0,0,129.27,39.87Zm.14,1a.33.33,0,0,0-.17.24c0,.12,0,.2.17.24s.14-.09.14-.27S129.5,40.84,129.41,40.88Zm-.07-.54.07.07Zm.55,2.65a.21.21,0,0,0,.2-.13.7.7,0,0,0,0-.41c-.05-.27-.18-.41-.41-.41s-.34.2-.2.61C129.61,42.88,129.75,43,129.89,43Zm.61,1.5-.14.2C130.68,44.74,130.72,44.67,130.5,44.49Z"/><path class="cls-2" d="M167.35,53.8A.31.31,0,0,1,167,54h-.4a.84.84,0,0,0-.24-.14,1.08,1.08,0,0,0-.51,0,2.7,2.7,0,0,0-.72.14c-.29.09-.46.2-.51.34a.41.41,0,0,0-.06-.27s-.1,0-.14,0a.5.5,0,0,1,.1.27.43.43,0,0,1-.07.34c-.06.09-.19,0-.37-.14a1.21,1.21,0,0,1-.24-.51c-.07-.25-.12-.37-.17-.37s-.23.21-.13.37.18.24.27.24a1.75,1.75,0,0,0,.2.31.28.28,0,0,1,.07.3c-.05.14-.11.21-.2.21s-.1-.08-.14-.24a.45.45,0,0,0-.27-.31,1,1,0,0,0-.89-.2c-.09,0-.16.08-.2.24a.75.75,0,0,1-.14.3c-.13,0-.27-.1-.4-.3s-.23-.29-.28-.24a2,2,0,0,0-.06.54q-.62,0-1.5-1.56a8.28,8.28,0,0,1-1.43-1.77c-.18-.32-.49-.87-.92-1.66a11.94,11.94,0,0,0-1.39-2.08,13.16,13.16,0,0,1-1.33-1.77c-.43-.68-.73-1.18-.91-1.49-.05-.09-.3-.46-.75-1.09a3,3,0,0,1-.68-1.63l-.41-.27a5.54,5.54,0,0,1-.85-1,10.49,10.49,0,0,0-.92-1.08q-.4-.56-1-1.5a9.49,9.49,0,0,0-1.15-1.5,7.56,7.56,0,0,1-.55-.61,1.5,1.5,0,0,0-.68-.54l-.2,0a.42.42,0,0,1-.27,0,2.51,2.51,0,0,0-.41.07c-.23,0-.27,0-.14-.07a.3.3,0,0,0-.17.24,1.32,1.32,0,0,1-.1.3l-.54.61q0-.41-.21-.27a5.34,5.34,0,0,0,.07,1.33c.09.88.14,1.41.14,1.6a6.58,6.58,0,0,1,.27,1.35v1.77a11.29,11.29,0,0,1-.14,1.43,11.18,11.18,0,0,0-.13,1.5c0,.22,0,.6.06,1.12s.07,1.14.07,1.87-.07,1.27-.2,1.36c0-.05-.23-.11-.82-.21a1.27,1.27,0,0,0-.64.14,2.15,2.15,0,0,1-.45.2l-.81.14a.2.2,0,0,0-.21,0,.54.54,0,0,0-.2-.34,1,1,0,0,0-.07-.34c0-.14-.09-.2-.13-.2s-.23-.21-.28-.21-.08.07-.1.21a1.37,1.37,0,0,1-.1.34v.06s0,.15,0,.31-.08.24-.3.24-.16-.09-.21-.27-.11-.28-.2-.28c-.09.46-.18.64-.27.55a1.09,1.09,0,0,1-.27-.68,1.45,1.45,0,0,1,.06-.41,5.11,5.11,0,0,0,.14-.54,6.73,6.73,0,0,0,.07-1.09l-.07-2.31c0-.64,0-.95-.14-.95a.85.85,0,0,0-.23.06c-.12.05-.27-.06-.45-.34a.59.59,0,0,1-.06-.34l.06-1a2.09,2.09,0,0,0-.1-.61,2.09,2.09,0,0,1-.1-.61q-.27-5.18-.27-7.41c0-.46,0-1.11,0-2s0-1.58,0-2.17a1.9,1.9,0,0,0-.1-.61,1.37,1.37,0,0,1-.11-.48,2.17,2.17,0,0,1,.14-.61,1.09,1.09,0,0,0,.07-.61,3.27,3.27,0,0,0-.1-.78,1.61,1.61,0,0,1,0-.72,7,7,0,0,1,.07-.95,9.37,9.37,0,0,0,.07-1q.06-1,0-1.8c0-.52,0-1,0-1.33V19.06a33.83,33.83,0,0,1,.13-3.54,29,29,0,0,0,.28-4.42c0-.91,0-2-.14-3.4a6.38,6.38,0,0,0-.2-1,5,5,0,0,1-.21-1.18A1.21,1.21,0,0,1,139,5q.27-.41.3.72c0,.74,0,1.18,0,1.32a1.68,1.68,0,0,0,.2-1l-.07-1.56c-.31-.82-.36-1.2-.13-1.16a2.22,2.22,0,0,1,.13.41c.05.18.09.25.14.2s.27-.13.27-.27.07,0,.21.27a4.85,4.85,0,0,1,.13,1.16v1c0,.59.05.91.14.95s.33-.31.3-1.32,0-1.56,0-1.6a2.66,2.66,0,0,0-.1-.55c-.07-.27,0-.43.1-.47l.2-.07c.09,0,.16.1.21.31s.09.3.13.3.39-.18.75-.54a1.3,1.3,0,0,0,.27-.34c.05-.09.12-.21.21-.34a1.11,1.11,0,0,0,.2-.34c0-.05.07-.07.21-.07a.38.38,0,0,0,.27-.07.28.28,0,0,1,.2-.07c.05,0,.14.15.27.31s.23.24.28.24a.38.38,0,0,0,.17-.28,1.41,1.41,0,0,1,.06-.27s.13,0,.31.14a.46.46,0,0,1,.31.51,1.31,1.31,0,0,0,0,.58,5.27,5.27,0,0,0,.41,1,3.13,3.13,0,0,1,.34,1.06,13.54,13.54,0,0,1-.07,1.56,4.54,4.54,0,0,0,0,1q0,.41,0,.75l-.07.68.07.34a1.91,1.91,0,0,1-.1.48,2.45,2.45,0,0,0-.1.74v2.18a26.1,26.1,0,0,1-.28,4.35,2.64,2.64,0,0,0,0,.72c0,.29,0,.53,0,.71a4.19,4.19,0,0,1-.13,1,2.57,2.57,0,0,0-.07,1,18.79,18.79,0,0,1,.2,3.26v2.18a11.29,11.29,0,0,0,.07,2h.07c.23,0,.44-.21.65-.65a6.74,6.74,0,0,1,.44-.84,8.57,8.57,0,0,1,1-1.33c.39-.43.67-.76.85-1a8.43,8.43,0,0,0,1.09-1.15,6.24,6.24,0,0,0,.58-1,6.24,6.24,0,0,1,.58-1,12.23,12.23,0,0,1,1.15-1.29,10.07,10.07,0,0,0,1.09-1.29,10.16,10.16,0,0,1,.58-.95,3.43,3.43,0,0,1,1.12-1.09,1.67,1.67,0,0,1,.55-.2l.61.07a.45.45,0,0,0,.27-.11.51.51,0,0,1,.2-.1,1.91,1.91,0,0,1-.06.54,1,1,0,0,0-.07.34.71.71,0,0,1,.24.11l.44.23a.87.87,0,0,0,.41-.34,1.07,1.07,0,0,1,.34-.34,2.09,2.09,0,0,1,1.29-.4,1.25,1.25,0,0,1,1.26,1.08c0,.28,0,.46,0,.55a2,2,0,0,0,0,.44.45.45,0,0,1,0,.17l-.27.54A2.06,2.06,0,0,1,159,20l-.58.58c-.09.14-.23.38-.41.72s-.39.48-.61.44c0-.05,0-.1-.1-.17s-.13-.06-.17,0,0,.09.17.14.1.16,0,.34a1.51,1.51,0,0,1-.34.44.21.21,0,0,1-.24,0l-.17-.14-.4.41a.16.16,0,0,0,.1.17.15.15,0,0,0,.17,0,1.06,1.06,0,0,1-.1.58c-.07.07-.16.07-.28,0a.56.56,0,0,0-.3-.1,3.47,3.47,0,0,1-.61.61c0,.09.09.14.27.14,0,.27-.3.68-.89,1.22s-1,.88-1.08,1-.44.51-.75.85A7.3,7.3,0,0,0,152,28c0,.14.06.21.2.21q-.13-.48.27-.27c0,.22-.09.34-.27.34v.06l-.24.21a1.43,1.43,0,0,0-.3.34,1.67,1.67,0,0,0-.48.54,1,1,0,0,0-.07.61,3.64,3.64,0,0,0,1,1.81l1.23,1.46q.75,1.15,2.85,4l2,2.72,1.22,2q1.9,3,2.92,4.42l2,3a5.38,5.38,0,0,1,.51.79,2.65,2.65,0,0,0,.51.71,3.66,3.66,0,0,0,.74.68,1.93,1.93,0,0,1-.34-1q.61,0,1.23,1.5s0,.15-.07.34a.38.38,0,0,0,.07.4A4,4,0,0,1,167.35,53.8ZM139.27,28.65c.09.13.16.2.2.2s.28-.3.41-.89a8.55,8.55,0,0,0,0-1.73c-.07-.7-.1-1.21-.1-1.53l-.21,1.09a11.67,11.67,0,0,1,.14-1.5,7.84,7.84,0,0,1,.13-1.7c.05-.18.11-.4.17-.68a2.32,2.32,0,0,0,0-.88l-.41-1.36a28.14,28.14,0,0,0-.14,4.62,6.36,6.36,0,0,0-.13,1.23l.07.88-.07.75.07-.61a.28.28,0,0,1,.06.2.8.8,0,0,1-.2.48A3.36,3.36,0,0,0,139.27,28.65Zm.54,1.56c0-.41,0-.61-.13-.61s-.18.12-.27.37a.92.92,0,0,0-.07.61c0,.16.18.15.41,0Zm-.34-3.95-.06.28V26.4l.06-.41a.28.28,0,0,1,.07-.2A1.61,1.61,0,0,0,139.47,26.26Zm.45-18.32c0-.16-.11-.23-.24-.2s-.21.12-.21.3a.94.94,0,0,0,.14.54A.94.94,0,0,0,139.92,7.94Zm-.24,1.32a.33.33,0,0,0-.21.07.44.44,0,0,1,.28.14C139.79,9.33,139.77,9.26,139.68,9.26ZM139.47,18a1.08,1.08,0,0,0,.14.68,2.4,2.4,0,0,0,.48-1.63,3,3,0,0,0-.28-1.36c.05-.23.09-.62.14-1.16s.07-1,.07-1.29a2.84,2.84,0,0,1,.13-.61.72.72,0,0,0-.13-.75,5,5,0,0,1,0,1.26c-.06.75-.17,1.51-.3,2.27l.13.28-.13-.07-.21,1.49Zm.14-4.28.27-2.11A4.83,4.83,0,0,0,139.61,13.69Zm.34-2.45.07-.62c0-.49-.05-.74-.14-.74s-.13.25-.13.74S139.9,11.24,140,11.24Zm-.14,23.9q0,.16.21,0a.4.4,0,0,1-.14-.27A.38.38,0,0,0,139.81,35.14Zm1.06-10a5.25,5.25,0,0,0,0,1.26l.07.68-.07.68a.28.28,0,0,0,.27.14.79.79,0,0,0,.14-.68c0-.09.1-.21.17-.34a.67.67,0,0,0,.07-.41,1.19,1.19,0,0,0-.17-.41c0,.14-.12.2-.21.2h-.06V26.2l.2-.55a.27.27,0,0,1,.27-.13c0,.09,0,.16.21.2a.1.1,0,0,0,0-.14l.27.07a.79.79,0,0,0-.21-.24c-.09-.06-.16-.07-.2,0s-.14-.07-.14-.2a.18.18,0,0,0-.2.2l-.14.07s-.06-.07-.06-.21l.06-.61a.39.39,0,0,1,.17-.17.32.32,0,0,0,.17-.1c.09,0,.14-.23.14-.54a.38.38,0,0,1-.34-.41.66.66,0,0,0,.34-.61c-.18,0-.3-.05-.34-.14s0-.18.07-.27.36,0,.41-.2c-.14-.19-.27-.37-.38-.55l-.24-.41a3.15,3.15,0,0,1-.23.72c-.12.25-.22.19-.31-.17v-.07a2.52,2.52,0,0,1,.27-.95,4.5,4.5,0,0,1,.48-.89c.13,0,.2.14.2.41s0,.5.14.54.2-.22.2-.67a2,2,0,0,0-.2-1.16c-.14-.14-.25-.21-.34-.21a.75.75,0,0,0-.41.14.36.36,0,0,1-.34.07c-.09-.09-.14-.16-.14-.21a1.12,1.12,0,0,1,.28-.64c.18-.25.31-.44.4-.58v-.2a.86.86,0,0,0-.1-.41,2.47,2.47,0,0,1-.17-.54c0-.05,0-.11,0-.17a.35.35,0,0,0,.1-.17,4.93,4.93,0,0,0-.14-.48c0-.14-.09-.3-.13-.48a4,4,0,0,1,.1-1.36A6.94,6.94,0,0,0,141,12.6a1.11,1.11,0,0,0-.14-.48,1,1,0,0,1-.13-.41,1.1,1.1,0,0,1,.37-.54,1.08,1.08,0,0,0,.37-.55l.07-.27c0-.09,0-.13-.07-.13a.38.38,0,0,0-.27.13,2.52,2.52,0,0,0-.27.34c-.05-.27-.1-.89-.17-1.87a6.64,6.64,0,0,0-.17-1.46c-.09,0-.14.45-.14,1.36,0,1.13,0,2.06.07,2.79s.07,1.2.07,1.43a46.09,46.09,0,0,0-.34,6.59A14.7,14.7,0,0,1,140,22.8v.13c0,.32.09.5.27.55a1.4,1.4,0,0,1-.14.51,1.27,1.27,0,0,0-.13.51,18.63,18.63,0,0,0,.13,2c.09.81.14,1.43.14,1.83l-.07,1.7.07.89a4.61,4.61,0,0,1,0,1.15,14.52,14.52,0,0,0-.11,1.7c0,.82.12,1.32.34,1.5a2.9,2.9,0,0,1-.06-.88c0-1.09,0-2,.1-2.86s.1-1.38.1-1.7V24C140.81,24,140.89,24.4,140.87,25.14Zm-.72,18.3c.09,0,.12-.11.07-.24-.09.09-.16.13-.2.13S140.06,43.46,140.15,43.44ZM141,29.12a.3.3,0,0,0,.24-.17.81.81,0,0,0,0-.51q-.08-.35-.24-.27a.64.64,0,0,0-.3.34C140.77,28.92,140.86,29.12,141,29.12Zm-.14-5.85c0,.05-.07,0-.07-.07a1,1,0,0,1,.21-.5q.19-.32.27,0l-.14.34Zm.89,21.9V43.26a21.68,21.68,0,0,0-.14-2.51,4.41,4.41,0,0,1-.14-1.29c0-.27,0-.6,0-1a8.7,8.7,0,0,0,0-1.32,26.61,26.61,0,0,1-.2-3.81,8.23,8.23,0,0,1,.07-1,12.87,12.87,0,0,0,.07-1.29,2.76,2.76,0,0,0-.21-1.22c-.09-.27-.18-.41-.27-.41s-.06.1,0,.31,0,.35,0,.44c.09,1.27.14,2.24.14,2.92l-.07,4,.47,5.43a2.1,2.1,0,0,1-.1.62,2,2,0,0,0-.1.61,6.83,6.83,0,0,1-.07.78,14.24,14.24,0,0,0-.07,1.46c0,.64.07,1,.21,1.09S141.79,46.66,141.79,45.17Zm-.55-36.25c-.09,0-.15.08-.17.24s0,.26.1.31.14-.11.14-.34S141.29,8.92,141.24,8.92Zm-.13-.68a.61.61,0,0,0,.13.34c0-.13,0-.2.07-.2a1,1,0,0,0-.07-.47A.61.61,0,0,0,141.11,8.24ZM141.48,19c.16-.09.21,0,.17.13a.36.36,0,0,1-.27.14C141.29,19.17,141.32,19.08,141.48,19Zm.31-4.42c0-.59-.1-1-.28-1.09s-.13.39-.13,1.16a11.26,11.26,0,0,0,.1,1.56c.07.5.12.73.17.68v-.27a.72.72,0,0,1,0-.41.46.46,0,0,1,.1-.27ZM141.58,18a.19.19,0,0,0,.14.27c0,.09.08,0,.1-.17s0-.33-.1-.38A.79.79,0,0,0,141.58,18Zm0,7.48.07-.14c.09.09.14.16.14.2A.33.33,0,0,0,141.58,25.52Zm.21,9a.3.3,0,0,0-.07-.47c-.09-.05-.14.08-.14.37s0,.47.14.51S141.92,34.72,141.79,34.49Zm-.14-17.61c-.05.05-.06.09,0,.14a.1.1,0,0,0,.1.06C141.67,17.08,141.65,17,141.65,16.88Zm.07,4.49s.07-.05.07-.14,0-.09-.14,0S141.67,21.37,141.72,21.37Zm.1,14.41a.47.47,0,0,0-.1-.2l-.07.14C141.79,35.85,141.84,35.88,141.82,35.78Zm0,12.52c0-.14-.07-.12-.07.07Zm.13-21.08c.09,0,.16-.1.21-.31a.53.53,0,0,0-.14-.51c-.14,0-.2.16-.2.48S141.83,27.22,141.92,27.22Zm0-13.6c0,.13,0,.13.17,0-.05,0-.07,0-.07,0v-.1C141.94,13.44,141.91,13.48,141.89,13.62Zm.1-1.36a.25.25,0,0,0,0-.34A.4.4,0,0,0,142,12.26Zm.54,7.48s.05-.09.14-.14c0-.32-.07-.52-.2-.61a.75.75,0,0,0,0,.88A.19.19,0,0,0,142.53,19.74Zm0,1a.42.42,0,0,1,.1-.17.32.32,0,0,0-.07-.17l-.13-.17a.41.41,0,0,0-.14.31.39.39,0,0,0,.14.3S142.54,20.79,142.57,20.72Zm.1,1.06c0-.05-.07-.14-.2-.28-.1.1-.14.17-.14.24a.6.6,0,0,0,.14.31Zm-.24,3a.54.54,0,0,0,.24-.11h-.2C142.33,24.72,142.32,24.76,142.43,24.74Zm.1,1.49c.05-.07.06-.11,0-.14s-.08,0-.17.11l.07.06S142.49,26.3,142.53,26.23Zm.85-1.36a.26.26,0,0,0,.17.31.34.34,0,0,1,.07-.17.53.53,0,0,0,.07-.31.21.21,0,0,1-.14-.2A.67.67,0,0,0,143.38,24.87Zm.07-3.71c-.11.1-.08.16.1.21s.08,0,.11,0a.55.55,0,0,0,0-.17Q143.61,21,143.45,21.16Zm.31,5.1c.09,0,.14-.06.17-.2a.37.37,0,0,0-.1-.34l-.14-.07c-.18,0-.27.1-.27.31s.09.3.27.3Zm-.21,1c.18-.49.18-.72,0-.67a.64.64,0,0,0-.13.47A.2.2,0,0,0,143.55,27.28Zm-.06,1.84c.09,0,.15-.17.2-.51s0-.46-.14-.37-.13.13-.13.27A1.55,1.55,0,0,0,143.49,29.12Zm.34-9.25a1.33,1.33,0,0,0-.14,1.29,2.43,2.43,0,0,0,.2-.81A.6.6,0,0,0,143.83,19.87Zm0-3.6a1,1,0,0,0-.14-.2,1.16,1.16,0,0,0,0,.61c0,.45,0,.68.14.68l.06-.68A1.07,1.07,0,0,0,143.83,16.27Zm0,4.83c.07-.14.08-.23,0-.28l-.2.34C143.73,21.26,143.79,21.23,143.86,21.1Zm4.59,6.18c.27,0,.5-.18.68-.54s.32-.61.41-.75a26.86,26.86,0,0,0,1.63-2.17,4.85,4.85,0,0,0,1-1.57c.77-.72,1.09-1.18.95-1.36s-.47.1-1.29,1.12a12.53,12.53,0,0,0-1.43,2q-.06.14-1.26,1.53c-.79.93-1.12,1.49-1,1.67l.13.06Zm5.3,14.32c.18.2.28.1.28-.31q0-.27-.75-.75a2.82,2.82,0,0,0-1.09-1.76c-.09-.23-.16-.34-.2-.34v.75a.68.68,0,0,1-.62-.35,1.74,1.74,0,0,1-.2-.88l.27.14c0,.13,0,.2.14.2l-.14-.2a.33.33,0,0,1,.21.06.18.18,0,0,0-.21-.2V38a1.82,1.82,0,0,0-.27-.75.69.69,0,0,0-.14-.2.81.81,0,0,1-.13-.28,3.25,3.25,0,0,1-.55-.51,1.44,1.44,0,0,0-.61-.44c.09,0,.14,0,.14-.1a.13.13,0,0,0-.1-.13c-.07,0-.11,0-.11.1s.22.36.79,1,.8,1,.71,1.29c-.14,0-.36-.19-.68-.58a3.13,3.13,0,0,0-.54-.58.39.39,0,0,0-.14.28,2.17,2.17,0,0,0,.34,1c.23.41.36.66.41.75A4.23,4.23,0,0,0,152,40.14a1.18,1.18,0,0,1,0-.51c0-.21,0-.35,0-.44.31,0,.6.29.85.88a6.2,6.2,0,0,0,.57,1.15Zm-2.38-11.94c0,.05,0,.07-.06.07a.17.17,0,0,1-.14-.1c0-.07,0-.12,0-.17A.18.18,0,0,1,151.37,29.66ZM152.5,37c.52.72.89,1.22,1.12,1.49l.13.14-.61-.54a5.48,5.48,0,0,0,.75.74l1.16,1.84a1.19,1.19,0,0,1,.17.44,2.11,2.11,0,0,0,.1.45.15.15,0,0,0,0,.17.38.38,0,0,1,0,.17,1.46,1.46,0,0,1,.47.2.66.66,0,0,0-.13.47c0,.05.18.07.54.07.18-.09.32-.1.41,0s.11.19.07.37a.6.6,0,0,0,.27.48,1.5,1.5,0,0,0,.31.44c.11.11.23.1.37,0s.2-.07.2-.21l-.13.14.13-.27q-.14,0-.27.27h-.13c0-.18-.12-.27-.34-.27a.3.3,0,0,1,.13-.24c.09-.07.14-.13.14-.17a.83.83,0,0,0-.38-.31c-.16-.07-.25-.13-.27-.2a.64.64,0,0,1,.1-.38,5.39,5.39,0,0,1-.34-.61c-.13-.27-.22-.47-.27-.61a4.73,4.73,0,0,0-.61-.51.84.84,0,0,1-.41-.64s.07-.07.07-.21l-.07.14c0-.14,0-.23.07-.27a.38.38,0,0,0-.2.34.46.46,0,0,1-.31-.17.64.64,0,0,1-.17-.45c.14,0,.2-.06.2-.2-.09.09-.16.14-.2.14l.07-.21a.13.13,0,0,0-.14.14.82.82,0,0,1-.47-.21,1.6,1.6,0,0,0-.11-.64.9.9,0,0,0-.27-.38,1,1,0,0,1-.24-.27,8.87,8.87,0,0,0-.68-1.09c-.31-.45-.56-.68-.74-.68S152,36.28,152.5,37ZM152,40.34a.24.24,0,0,0,.2.07c-.14,0-.2-.07-.2-.21C151.94,40.25,151.94,40.3,152,40.34Zm.4,0s0-.1-.17-.17-.19-.08-.23,0Zm.07-12.44c0-.14,0-.23,0-.28a.31.31,0,0,1,.21-.06C152.67,27.78,152.6,27.9,152.46,27.9Zm.21-.34c0-.23.06-.32.34-.28C153,27.47,152.89,27.56,152.67,27.56Zm.27,14.35c.09-.19.11-.3.07-.34s-.29,0-.31.06a1,1,0,0,0,0,.21V42Q152.81,42.18,152.94,41.91ZM153,27.28c-.14-.31,0-.43.27-.33Q153.28,27.28,153,27.28Zm.27-.33c-.14-.32-.05-.44.27-.34C153.55,26.83,153.46,27,153.28,27Zm.41-.41c-.05.13-.1.16-.14.07v-.35A.2.2,0,0,1,153.69,26.54Zm-.14,15.57a.15.15,0,0,0,0,.1.12.12,0,0,1,0,.1C153.71,42,153.69,42,153.55,42.11Zm.2-3.47.28.27V39l-.14-.14C153.8,38.75,153.75,38.69,153.75,38.64Zm1,5.81a.8.8,0,0,1,.34.38l.2.41a1.62,1.62,0,0,0,.34.47,2,2,0,0,0-.27-.81.5.5,0,0,0-.24-.21.22.22,0,0,1-.17-.2,1.09,1.09,0,0,1-.07-.48,1.07,1.07,0,0,0-.07-.47.75.75,0,0,0-.47,0v-.89l.2.14a.74.74,0,0,1-.07-.31c0-.11-.06-.17-.2-.17,0,0,0-.1,0-.17s-.13-.08-.17,0,.09.13.13.54l-.07.61a1.74,1.74,0,0,0,.28.89A.8.8,0,0,0,154.71,44.45Zm.06-1.46c-.13.09-.13.15,0,.17a.69.69,0,0,0,.38,0c.11-.05.08-.09-.1-.14.09,0,.07,0,0-.13a1.36,1.36,0,0,0-.37-.21c-.14,0-.18,0-.14.14Zm-.27-3.8v-.07l.07.07v.06Zm.55.68.13-.07v.07Zm.27-15.71q-.07-.14,0-.21s.11,0,.2,0A.18.18,0,0,1,155.32,24.16ZM155.79,44a.38.38,0,0,0-.23-.2c-.12-.05-.2,0-.24.07s.11.27.34.27S155.84,44.1,155.79,44ZM155.52,24a.77.77,0,0,1,0-.3c0-.07.1-.08.23,0C155.79,23.84,155.7,24,155.52,24Zm.14,22a.28.28,0,0,1-.07-.21h-.07Zm.13,0-.2-.21ZM156,16.17q-.08.16-.21,0A.18.18,0,0,1,156,16S156,16.05,156,16.17Zm.3,29.58c.34.43.6.55.79.37a2.73,2.73,0,0,0-.62-1.19c-.4-.56-.63-.65-.68-.24A1.93,1.93,0,0,0,156.3,45.75Zm0-28.67c-.05.14-.11.14-.2,0a.18.18,0,0,1,.2-.2S156.31,17,156.27,17.08Zm.07,5.85c-.05-.09-.05-.16,0-.2s.11-.05.2,0A.18.18,0,0,1,156.34,22.93Zm0,19.18a.21.21,0,0,0,.2-.14v.34A.18.18,0,0,1,156.34,42.11Zm1.83,7.17a5.38,5.38,0,0,0-.88-1.12s.07,0,.07-.1a.21.21,0,0,0-.1-.17c-.07,0-.13,0-.17.07a15.53,15.53,0,0,0,.81,1.36,5.42,5.42,0,0,0,.68,1C158.72,50.22,158.58,49.9,158.17,49.28Zm-.68-2,.07-.21C157.47,46.85,157.45,46.91,157.49,47.28Zm.07-3.4v-.07h.14l-.07.07Zm.14.81c.09,0,.13,0,.13-.13C157.61,44.51,157.56,44.56,157.7,44.69Zm.07,2.86c-.1,0-.13,0-.11.14a.33.33,0,0,0,.17.2c0,.09.09.18.28.27l-.21-.27.27.14c0-.14-.11-.21-.2-.21C158,47.64,157.9,47.55,157.77,47.55Zm-.11-2c0,.14.08.2.17.2v-.27C157.7,45.35,157.64,45.37,157.66,45.51Zm.17,2.31.07.07h-.07Zm.34-1.7a.06.06,0,0,0,.07.07.5.5,0,0,0,.21-.07A.18.18,0,0,0,158.17,46.12Zm.28,2.38a.2.2,0,0,0,.13.2C158.63,48.43,158.58,48.37,158.45,48.5Zm.27.75c0,.13.07.16.2.07l-.07-.28C158.76,49,158.72,49.11,158.72,49.25Zm2.11,3.47c-.41-.59-.68-.89-.82-.89a2.47,2.47,0,0,0-.75-.95c0-.23-.11-.27-.34-.14.09,0,.21.23.34.68a.31.31,0,0,0,.24.17,1,1,0,0,0,.24,0,.74.74,0,0,1,.27.48,10.15,10.15,0,0,1,.75.88c.31.41.45.63.41.68C161.35,53.62,161.23,53.31,160.83,52.72Zm-1.16-4.49c-.09-.09-.16-.07-.2.07l.2.2h0a.61.61,0,0,1,.1.14s0,.06,0,.06a.28.28,0,0,0,.17-.1.26.26,0,0,1,.3,0s0,.08,0,.1a.35.35,0,0,0,.14,0l-.07-.13.14.07a.25.25,0,0,0,0-.14s0,0-.1,0l-.13-.34a1.34,1.34,0,0,1-.48.34A.17.17,0,0,0,159.67,48.23Zm-.07-1.63a.4.4,0,0,0,0-.34C159.51,46.35,159.51,46.46,159.6,46.6Zm.61,2,.07-.07v.07Zm.41,2.82a.43.43,0,0,0-.27-.1s-.07,0-.07.07.11.25.34.47l.14-.2A.31.31,0,0,0,160.62,51.39Zm1,3.74c-.13-.07-.18-.15-.13-.24s.18.07.27.21S161.78,55.2,161.64,55.13Zm.41-4.39q-.21-.2-.27,0T162.05,50.74ZM164.43,49c0-.14.09-.21.14-.21s.06.07.06.21S164.43,49,164.43,49Zm1.19,1.56a.62.62,0,0,1-.2-.24c-.07-.11,0-.19.1-.23s.13,0,.13.34C165.7,50.54,165.69,50.59,165.62,50.54Zm-.24,4.22.14-.07C165.74,54.82,165.7,54.85,165.38,54.76Zm.89-2.65-.14-.21C166.13,52,166.17,52,166.27,52.11Z"/></g></g></g></g></svg>