<svg xmlns="http://www.w3.org/2000/svg" viewBox="0 0 394.26 394.26"><defs><style>.cls-1{fill:#fff;}.cls-2{fill:#333434;}</style></defs><title>icon</title><g id="Layer_2" data-name="Layer 2"><g id="Layer_1-2" data-name="Layer 1"><circle class="cls-1" cx="197.13" cy="197.13" r="197.13"/><path class="cls-2" d="M34.75,189.17a17.49,17.49,0,0,0,.83-4.91A162.16,162.16,0,0,1,126.67,51c2.25-1.1,2.26-1.09,2.8,1.28a62.87,62.87,0,0,1,1.64,14q.09,42.32.13,84.62,0,25.19.09,50.35c0,14.46.21,28.92.19,43.38a214,214,0,0,1-1.33,27c-1,7.8-2.62,15.42-7,22.14-.08.12-.05.31-.09.64,2.68.5,5.38,1,8.07,1.52a181.8,181.8,0,0,1,38,12.56c10.86,4.82,21.33,10.4,31.76,16.06,2.09,1.14,2.07,1.14,3.81-.38,10.46-9.09,21.87-16.86,33.57-24.22a361.71,361.71,0,0,1,35.9-20,3.54,3.54,0,0,0,1.43-.87c-3.48-5.53-4.87-11.74-5.76-18.09-1.51-10.79-1.32-21.67-1.53-32.53q-.48-24-.95-47.92c-.18-9,.12-17.88,2-26.69a28.33,28.33,0,0,1,2.77-8.08c-.12-.75-.8-.77-1.26-1a422.14,422.14,0,0,1-53.52-30.63c-1.18-.8-1.8-.38-2.69.23Q197.52,126.2,180.33,138a8.09,8.09,0,0,1-2.48,1.41v-2q0-46.86,0-93.73c0-2.24.15-4.47.19-6.71,0-.81.37-1.09,1.15-1.17A162.46,162.46,0,0,1,205.29,35a169.21,169.21,0,0,1,24.45,3.1,157.52,157.52,0,0,1,62.13,27.16q49.65,36.14,63.71,96a155.81,155.81,0,0,1,3.87,41.86A162.27,162.27,0,0,1,239.61,353.5a159,159,0,0,1-29.43,5,166,166,0,0,1-22.52.24,155.13,155.13,0,0,1-60.25-15.54Q60.15,309.95,40.2,237.51a140.47,140.47,0,0,1-4.59-27.59,24.72,24.72,0,0,0-.86-5.4Z"/><path class="cls-2" d="M220.91,283.81c-1,.4-1.44-.13-2-.45a214.18,214.18,0,0,0-39-18.55c-2.11-.77-2.13-.77-2.12-3,0-12.07,0-24.13.1-36.19q.15-26,.39-52c.06-7.11.27-14.21.35-21.32a1.9,1.9,0,0,1,1.22-2,38,38,0,0,0,4.67-2.38c1.42-.9,2.56-.63,3.9.13,8.68,4.91,17.12,10.21,25.53,15.56,1.62,1,3.22,2.07,4.88,3a2.12,2.12,0,0,1,1.17,2.11c0,6.7.19,13.41.23,20.12.11,15.1.08,30.2.31,45.29.23,15.82.24,31.63.31,47.45Z"/></g></g></svg>