<svg xmlns="http://www.w3.org/2000/svg" viewBox="0 0 199.49 58.31"><defs><style>.cls-1{isolation:isolate;}.cls-2{fill:#333;}</style></defs><title>Zawlbuk</title><g id="Layer_2" data-name="Layer 2"><g id="Layer_1-2" data-name="Layer 1"><g id="Zawlbuk" class="cls-1"><g class="cls-1"><path class="cls-2" d="M24.26,55.57a18.4,18.4,0,0,0,2-.07,11.42,11.42,0,0,0,4-1.92A21.7,21.7,0,0,0,36,47.36a8,8,0,0,0,1.56-4.81,5.74,5.74,0,0,0-1.19-3.7,1.45,1.45,0,0,1-.37-.37A.32.32,0,0,1,36,38c.15-.15.34-.1.59.14A6.11,6.11,0,0,1,38.47,43a6.55,6.55,0,0,1-.08,1.19,9.43,9.43,0,0,1-1.33,3.7,24.18,24.18,0,0,1-6,6.73,18.51,18.51,0,0,1-6.29,3.48l-.3.07c-1.09.1-1.92.15-2.52.15a9.75,9.75,0,0,1-3.47-.59,41.45,41.45,0,0,1-6.59-3.48,25.78,25.78,0,0,0-4-2.14,4.82,4.82,0,0,0-2.07-.45,5,5,0,0,0-1,.08c-.59.14-.91.22-1,.22a2,2,0,0,0-1.63,1l-.89,1.26A4.56,4.56,0,0,1,.5,55H.13c-.14,0-.17-.17-.07-.37a19.51,19.51,0,0,1,1-1.77c.1-.1.37-.42.82-1a5.4,5.4,0,0,1,1.62-1.33c1.24-.54,2-.86,2.3-1a2.47,2.47,0,0,0,1.7-1.41,9.11,9.11,0,0,1,.89-1.37c.39-.51.71-1,1-1.36s.69-1,1.33-1.93a23,23,0,0,0,1.56-2.44A6,6,0,0,1,12.94,40c.34-.44.64-.84.88-1.18L16.93,34l1.93-3a10.33,10.33,0,0,1,.59-.89c.24-.34.52-.74.81-1.18a6.61,6.61,0,0,0,.52-.89.24.24,0,0,0,0-.26c-.05-.07-.1-.11-.15-.11a10.25,10.25,0,0,1-1.22-.37,3.18,3.18,0,0,0-1.66-.15,10.18,10.18,0,0,0-3.11,1.48l-.59.45c-.05.05-.13.05-.23,0a.24.24,0,0,1-.14-.23,1.09,1.09,0,0,1,.37-1,6.33,6.33,0,0,1,2.07-1.48c.34-.15,1.18-.47,2.51-1a7.12,7.12,0,0,1,2.74-.59l.74.07a1.14,1.14,0,0,0,1.19-.59L24.78,22q1.32-2.07,1.92-3.18L28,16.58a24.75,24.75,0,0,1,1.63-3A36.71,36.71,0,0,1,32,9.92a7.8,7.8,0,0,0,.44-.67L33,8.36c0-.15,0-.22-.07-.22s-.08-.07-.23-.07a8,8,0,0,1-3.1.59A16.42,16.42,0,0,1,26,8.14L20.34,6.81l-1.48-.45a5,5,0,0,0-2.08-.44,4.83,4.83,0,0,0-2.22.52,2.46,2.46,0,0,1-.66.29,4.73,4.73,0,0,0-2.67,2.15,1.25,1.25,0,0,0-.22.74,4.48,4.48,0,0,0,.15.74,1.55,1.55,0,0,1,.07.81c0,.1-.05.15-.14.15a.32.32,0,0,1-.23-.07,2.87,2.87,0,0,1-.59-1.41V9.69a3.41,3.41,0,0,1,.67-1.85L11.57,7a2.83,2.83,0,0,1,1.14-1A9.39,9.39,0,0,1,15,4.48c.86-.42,1.37-.68,1.52-.78A13.54,13.54,0,0,0,18.12,3a2.3,2.3,0,0,1,1.18-.3,13.84,13.84,0,0,1,4.22.67,47.76,47.76,0,0,0,6,1.85,16.8,16.8,0,0,0,2.07.3,4,4,0,0,0,.89.07A5.59,5.59,0,0,0,36,4.22a1.09,1.09,0,0,0,.33-.3.53.53,0,0,1,.41-.22,1.28,1.28,0,0,0,.48-.11,1.11,1.11,0,0,1,.48-.11c.2,0,.3.15.3.44s-.2.5-.59.74a6.09,6.09,0,0,0-.45.7l-.37.71a33.38,33.38,0,0,0-2.74,4.07L32,13a7.88,7.88,0,0,0-.74,1.29c-.25.52-.45.91-.59,1.15s-.33.67-.52,1.11a16.33,16.33,0,0,1-.82,1.56l-1,1.55-1.15,1.85a25.27,25.27,0,0,1-1.88,2.66,3.52,3.52,0,0,0-.52,1c-.2.24-.29.39-.26.44s.21.07.56.07a3.32,3.32,0,0,0,.81.08,9,9,0,0,0,1.18.15,7.85,7.85,0,0,0,3-.74,8.45,8.45,0,0,1,2.07-.82.17.17,0,0,1,.18,0,.52.52,0,0,1,.19.12.17.17,0,0,1,0,.18l-.11.26A5.26,5.26,0,0,1,31,26.12c-.2.1-.63.35-1.29.74a9.9,9.9,0,0,1-1.89.89,11,11,0,0,1-3,.52L24,28.19a4,4,0,0,0-.89-.07.78.78,0,0,0-.74.44,9,9,0,0,1-1.62,2.3l-.15.22a14.06,14.06,0,0,1-1.11,2c-.59,1-.94,1.55-1,1.7l-.22.44a14.59,14.59,0,0,0-2.29,3.26,4.71,4.71,0,0,1-.89,1,4.9,4.9,0,0,0-.74,1.11A4.14,4.14,0,0,1,13.38,42c-.69.94-1.16,1.6-1.41,2a17.53,17.53,0,0,1-1.18,1.48c-.3.14-.47.29-.52.44a6.82,6.82,0,0,1-.66,1.37l-.67,1.07c-.15.2-.12.35.07.45a2.82,2.82,0,0,0,.89.51,13.73,13.73,0,0,1,2.78,1.26c.91.54,1.46.87,1.66,1,1.09.6,2.34,1.36,3.78,2.3a.38.38,0,0,0,.22.15c1.77.74,3.23,1.28,4.36,1.62a2.56,2.56,0,0,0,.74.08A2.92,2.92,0,0,0,24.26,55.57Z"/><path class="cls-2" d="M70.29,42.4l-.08.67a11.78,11.78,0,0,1-.66,2.59,13.64,13.64,0,0,1-1.71,3.4l-1,1.56a.61.61,0,0,0,0,.59.13.13,0,0,1,.18,0c.08,0,.09.12,0,.22a1.86,1.86,0,0,1-.37.44,9.44,9.44,0,0,1-.7.78,5.77,5.77,0,0,0-.63.7.7.7,0,0,1-.45.37,2.61,2.61,0,0,0-1,.63l-.67.63a3.84,3.84,0,0,1-.74.45c-.1,0-.3-.15-.59-.45a1.64,1.64,0,0,0-.22-.18.67.67,0,0,1-.22-.26A6,6,0,0,0,60.33,53c-.52-.57-.87-1-1.07-1.22a4.88,4.88,0,0,1-.52-1c-.1-.29-.2-.45-.29-.48s-.28.09-.52.34a1.24,1.24,0,0,0-.52.51,14.56,14.56,0,0,1-1.78,1.78l-1.55,1.55a1.43,1.43,0,0,1-1.19.52,6.82,6.82,0,0,0-1-.18,3.15,3.15,0,0,1-1.48-.63l-.89-.45a31.83,31.83,0,0,1-3.33-1.55,3.39,3.39,0,0,0-1.92-.67,4.11,4.11,0,0,0-.82.15c-.15.05-.22,0-.22-.29a1.58,1.58,0,0,1,.15-.82,3.59,3.59,0,0,0,.44-1.85l.08-3.62V43.88a23,23,0,0,1-.23-4.81,27,27,0,0,0-.29-3.4l-.15-1.48c-.2-2-.29-3.5-.29-4.59,0-.84.09-2.29.29-4.37a.68.68,0,0,1,.22-.51c.5-.4,1-.79,1.41-1.19a5.68,5.68,0,0,1,1.63-1.4,2.21,2.21,0,0,0,.51-.6,4.69,4.69,0,0,1,1.67-1.25c.71-.35,1.24-.62,1.59-.82a.33.33,0,0,1,.37-.07l.3.07c.29,0,.56-.2.81-.59l.45-.3c.14-.19.39-.24.73-.14l.71.25a3.51,3.51,0,0,1,.78.41,14,14,0,0,0,5.32,1.56h.37a1.43,1.43,0,0,0,1-.37c.25-.25.66-.62,1.26-1.11a1.15,1.15,0,0,1,.51-.15.14.14,0,0,0,.15.15v.14a2.14,2.14,0,0,1-.66.67.85.85,0,0,0-.37.81v.15a2.24,2.24,0,0,1-.3,1,6.09,6.09,0,0,0-.29,1.48q-.3,4.44-.3,6.66c0,.79,0,1.93.15,3.41l.07,3.48v8.73l.08,2a4.21,4.21,0,0,0,1.1,2.51l1.63,1.7a.43.43,0,0,0,.3.15.23.23,0,0,0,.22-.15l1.18-1.11a16.34,16.34,0,0,0,3.71-6.58,6.53,6.53,0,0,0,.22-1.63,9.14,9.14,0,0,0-.15-1.41L69.25,40A3.11,3.11,0,0,1,70.29,42.4ZM58.78,23.83a.48.48,0,0,0-.11-.52,1,1,0,0,0-.45,0,1.8,1.8,0,0,1-.37,0,1.22,1.22,0,0,1-.51-.07,24.72,24.72,0,0,1-5.85-1.85,5.36,5.36,0,0,0-.56-.15,2.59,2.59,0,0,0-.55-.08h-.22a1.39,1.39,0,0,0-.74.23c-.4.19-1.31.76-2.74,1.7a1.15,1.15,0,0,0-.74,1.18l-.15,3A18.52,18.52,0,0,0,45.87,30l.07,1.92.22,1.71a20.68,20.68,0,0,1,.3,3v2a19,19,0,0,0,.07,1.93c0,.74.07,1.9.07,3.48s0,2.68.08,3.47a2.45,2.45,0,0,1-.15.6,1.22,1.22,0,0,0,.07.51c0,.1.2.18.45.23a15.83,15.83,0,0,1,3,1.62A11.16,11.16,0,0,0,52.6,51.5l1.92.6a.84.84,0,0,0,.37.07,1,1,0,0,0,.74-.37l2.08-2.22a3.18,3.18,0,0,0,.74-2.22c0-1,.07-2.49.07-4.51q0-5.55-.15-8.37c0-.64-.07-1.62-.07-3,0-1,.05-2.64.15-4.81,0-.24,0-.63,0-1.14a6.1,6.1,0,0,1,.19-1.3A1.25,1.25,0,0,1,58.78,23.83Z"/><path class="cls-2" d="M88.12,42.92l.44-8.44V32.93l-.07-1.18a4,4,0,0,1,.15-.89,1.8,1.8,0,0,0-.08-.82,3.41,3.41,0,0,1-.15-1,21,21,0,0,0,.08-2.14,17.39,17.39,0,0,0-.15-2.67,1.24,1.24,0,0,0-.59-.89,9.09,9.09,0,0,0-1.63-1.11c-.2-.14-.35-.21-.44-.18a1.38,1.38,0,0,0-.45.26l-.74,1c-.19.15-.39.1-.59-.14a1.48,1.48,0,0,0,0-.34,1.22,1.22,0,0,1,0-.48l.67-.89a1.86,1.86,0,0,1,1.11-.74.68.68,0,0,0,.37-.33,1.73,1.73,0,0,1,.29-.41l.74-.59a.62.62,0,0,1,.52-.37l.37.15a13.34,13.34,0,0,0,1.22.7,7.32,7.32,0,0,1,1.3.85,2.07,2.07,0,0,1,.66,1.48l.08,2.89a14.65,14.65,0,0,0,.07,1.7,28.79,28.79,0,0,0,.15,3.48,2.25,2.25,0,0,1-.08.63,2,2,0,0,0-.07.55c-.1,2.18-.15,3.78-.15,4.81a4.89,4.89,0,0,0-.07.93,6.56,6.56,0,0,1-.15,1.29v.56a2.26,2.26,0,0,0,.15.85l.07.22a2.78,2.78,0,0,0-.22,1.11L91,42.7a2.64,2.64,0,0,1-.07.74,3.52,3.52,0,0,0-.07.81A7.42,7.42,0,0,0,91,45.77c.12.57.21,1,.26,1.37a2.62,2.62,0,0,0,.89,1.63q1.19,1.47,1.92,2.22a4.7,4.7,0,0,1,.89.77l.67.71c0,.1.22.1.51,0L96.7,52a19.1,19.1,0,0,0,1.56-3.11.84.84,0,0,0,.14-.56,2.87,2.87,0,0,1,.08-.7c0-.15,0-.54.07-1.18a6.7,6.7,0,0,1,.37-1.78,2.51,2.51,0,0,0,.08-.74,3.9,3.9,0,0,0-.08-.89V41a14.33,14.33,0,0,0-.07-2.45c0-.88-.08-2.24-.08-4.07q0-4.87-.22-7.4l-.07-1.25A15.61,15.61,0,0,1,98.63,24,1.14,1.14,0,0,0,98,22.64s-.15-.07-.3-.22c-.69-.39-1.33-.74-1.92-1a2.09,2.09,0,0,0-.7.74,5,5,0,0,1-.71.88l-.07.08c-.15.15-.27.2-.37.15a.67.67,0,0,1-.07-.52,1.71,1.71,0,0,0,.26-.41,1.24,1.24,0,0,1,.25-.41A11.89,11.89,0,0,0,96,19.76a15.5,15.5,0,0,1,1.25-1.33.59.59,0,0,1,.89.07,3.5,3.5,0,0,0,1.7,1.33,2,2,0,0,1,.67.3,1.43,1.43,0,0,1,.81,1.33v.22c-.1,1-.14,1.7-.14,2.15,0,.89,0,1.66.07,2.33s.1,1.22.15,1.66a20.36,20.36,0,0,1-.08,2.08,36.27,36.27,0,0,0,.08,3.84,24.52,24.52,0,0,1,.15,3.19,26.15,26.15,0,0,1-.15,3.25l-.08.52a4.3,4.3,0,0,1,.08,1,11.2,11.2,0,0,1-.26,2.15c-.17.84-.31,1.5-.41,2a.9.9,0,0,0-.07.4,1.68,1.68,0,0,1-.15.63,3,3,0,0,1-.67,1.56A6.81,6.81,0,0,0,99,49.8a11.34,11.34,0,0,1-.82,1.41A26,26,0,0,1,94.7,56a.58.58,0,0,1-.29.18c-.1,0-.22,0-.37-.18s-.47-.46-.67-.63-.37-.33-.52-.48a12.13,12.13,0,0,1-1.62-1.63c0-.05-.4-.47-1-1.26a7.92,7.92,0,0,1-1.41-2l-.22-.22-.15.22a27.78,27.78,0,0,1-3.33,5,1,1,0,0,1-.81.07,7.25,7.25,0,0,1-2-2.22l-1.85-3.48a23.36,23.36,0,0,1-2.29-5.84,19.33,19.33,0,0,1-.3-2.52c0-.89-.07-1.48-.07-1.78a47.45,47.45,0,0,1,.29-5.47,48.34,48.34,0,0,1,.52-5.33c0-.1.15-1.33.45-3.7a.84.84,0,0,0-.15-.59l-1.93-1.93a1.54,1.54,0,0,0-.59-.29c-.1,0-.27.12-.52.37a2.38,2.38,0,0,1-.29.37,1.06,1.06,0,0,0-.22.29c-.2.2-.35.28-.45.23a.46.46,0,0,1-.15-.34v-.26A4.12,4.12,0,0,1,76.5,20.5a2.19,2.19,0,0,0,1-.82,1,1,0,0,1,.37-.51,1.2,1.2,0,0,1,.4-.19.48.48,0,0,1,.41.19,3.4,3.4,0,0,0,.81.81,8.6,8.6,0,0,1,.89.74l.89.67a1,1,0,0,1,.59.88v.15a2.54,2.54,0,0,1-.15,1,16.19,16.19,0,0,1-.44,3L81.09,28l-.45,4.52A11.17,11.17,0,0,0,80.57,34v1.48a28.59,28.59,0,0,0,.22,5.4,17.07,17.07,0,0,0,.52,1.77c.15.4.38,1.06.7,2a11.29,11.29,0,0,0,1.15,2.44A15.44,15.44,0,0,1,84,48.69a7,7,0,0,0,1.07,1.7q.15.22.45.6c.19.24.34.37.44.37s.49-.35,1-1a8.4,8.4,0,0,0,1.11-4.14Z"/><path class="cls-2" d="M111.28,57.57a18.16,18.16,0,0,1-2.18-.48,4.16,4.16,0,0,1-1.59-.92,9.74,9.74,0,0,0-3-1.63c-.7-.35-1-.62-1-.82s.27-.51.81-1A6.15,6.15,0,0,1,105,52a2.6,2.6,0,0,0,1-1.77q.43-3.63.51-5l.3-4.81c0-1.13-.07-2.88-.07-5.25,0-1.08,0-2.81.14-5.18l-.07-5.4V20.79l-.22-5.62c0-.34,0-1.2.07-2.55A25.69,25.69,0,0,1,107.06,9a18.65,18.65,0,0,1,.82-3.7,3.5,3.5,0,0,1,1.25-1.85,19,19,0,0,0,1.56-1.33A9.47,9.47,0,0,1,112.46.74a2.07,2.07,0,0,1,.45-.37,1.18,1.18,0,0,0,.37-.07c.15,0,.24,0,.29,0s.18.28.08.4-.18.19-.22.19L112,2.07a4,4,0,0,0-1.11,1.56,20.18,20.18,0,0,0-.89,5c-.1,1.58-.15,2.82-.15,3.7l.07,3.7L110,23.9v3.92c0,1.73,0,3-.07,3.93v3.1c0,.3,0,.77,0,1.41a13.07,13.07,0,0,1,0,1.7,33.78,33.78,0,0,1-.08,3.7c-.1,1.68-.14,2.91-.14,3.7a2.76,2.76,0,0,1-.08,1c-.1.39-.17.66-.22.81a7.76,7.76,0,0,1-.18.82c-.08.24-.14.47-.19.66a1.77,1.77,0,0,1-.59,1c-.1.15-.24.37-.41.67a3.15,3.15,0,0,1-.48.67.8.8,0,0,0-.3.51c0,.15.18.3.52.45A16,16,0,0,1,111,53.87a3.09,3.09,0,0,0,1.26.52H113a2,2,0,0,0,1,.3,1.83,1.83,0,0,0,1-.37c.34-.25.54-.4.59-.45a9.85,9.85,0,0,1,1-.78,3.76,3.76,0,0,0,1-1.07c0-.05,0-.07.07-.07a.21.21,0,0,1,.15.07s.08.08.08.22a4.14,4.14,0,0,1-.67,1,29.69,29.69,0,0,1-5,4.07A1.48,1.48,0,0,1,111.28,57.57Z"/><path class="cls-2" d="M132.74,25.9a5,5,0,0,1,.07,1l-.07,2.14c0,.4,0,.89.07,1.48a7.25,7.25,0,0,1,0,1.48l-.07,1.33.07,2a19.25,19.25,0,0,1,.08,2c0,2.27-.08,4.56-.22,6.88a12.36,12.36,0,0,1-.89,3.18,33.75,33.75,0,0,1-2.52,4A16.32,16.32,0,0,1,127,54.09a1.11,1.11,0,0,1-.59.52.79.79,0,0,0-.37.3.87.87,0,0,1-.74.52,6.1,6.1,0,0,1-.74-.23c-.79-.39-1.38-.66-1.78-.81a11.06,11.06,0,0,1-1.77-.81.84.84,0,0,0-1,0,.65.65,0,0,1-.56,0,1,1,0,0,1-.33-.55,4.11,4.11,0,0,1-.15-.82,1.94,1.94,0,0,1,.07-.59,5.59,5.59,0,0,0,.15-1.48,11.88,11.88,0,0,0-.07-1.55,19.72,19.72,0,0,1-.15-2l.07-2.74a10.35,10.35,0,0,1,0-1.55q0-.67,0-1.11a12.9,12.9,0,0,0-.07-1.63,9.55,9.55,0,0,1-.07-1.41c0-.93,0-2.24-.08-3.92V22.2c0-2.22,0-3.87-.07-5a8.94,8.94,0,0,0-.08-.92c0-.42-.1-.75-.14-1s0-.32,0-.52a2,2,0,0,1,0-.67V12.28a4.49,4.49,0,0,1,1.85-3.77,6.89,6.89,0,0,0,1.25-1.33,4.08,4.08,0,0,1,1.71-1.33c.34-.15,1-.39,1.81-.71a17.27,17.27,0,0,1,2.33-.7,2.92,2.92,0,0,1,1.78.26,2.83,2.83,0,0,1,1.25,1.22l.52,1a2.36,2.36,0,0,1,.15.74l-.07.51c-.1.2-.18.3-.23.3s-.12,0-.07-.22A4.68,4.68,0,0,0,130,6a2,2,0,0,0-1.77-1h-.45a6.65,6.65,0,0,0-3.25,1.33,8.39,8.39,0,0,1-1.56,1,3.27,3.27,0,0,0-1.63,3,39,39,0,0,0,.15,4c.1,1.38.15,3.47.15,6.29a18.62,18.62,0,0,0,.07,1.92.23.23,0,0,0,.37.07c.79-.59,1.38-1.06,1.78-1.4a15.55,15.55,0,0,1,1.63-1.48L127,18.28a.67.67,0,0,1,.67-.08l1.33.74a16.2,16.2,0,0,0,3,1.78,1.22,1.22,0,0,1,.89,1.26v.22Zm-2.66,9.32-.15-7.4.07-1.55c0-1.09,0-1.9-.07-2.44a.87.87,0,0,0-.52-.74c-.44-.25-1.11-.67-2-1.26l-1.55-.89a.5.5,0,0,0-.74.08l-.37.29c-1.33,1.19-2.2,1.93-2.59,2.22a1.57,1.57,0,0,0-.52,1.26v8.36c0,1.68,0,2.94.07,3.78l.08,3.92V44c0,1.33,0,2.34.07,3v1.15a8,8,0,0,0,.15,1.59,1.49,1.49,0,0,0,.59.89c.15.09.86.46,2.15,1.11a11.16,11.16,0,0,1,1.33.59,5.09,5.09,0,0,0,.81.29.72.72,0,0,0,.56-.33c.17-.22.28-.36.33-.41l.15-.14.74-1.52a16.8,16.8,0,0,0,.81-2A9.81,9.81,0,0,0,130,46l.08-3c0-.64.07-1.61.07-2.89Z"/><path class="cls-2" d="M157.75,28.05c.05.64.08,1.57.08,2.81a16.75,16.75,0,0,1-.08,1.92v2.81c0,1.29,0,2.25-.07,2.89,0,.44.07,1.14.07,2.07l.15,3.33A12.62,12.62,0,0,0,159,48.54,4.44,4.44,0,0,1,159.6,50a1.18,1.18,0,0,0,.07.44,6,6,0,0,1,.38.52.85.85,0,0,0,.74.45,1.23,1.23,0,0,0,1-.12,2,2,0,0,0,.78-.77,16.84,16.84,0,0,0,1.78-5.4,11.22,11.22,0,0,0-.59-4.07,2.46,2.46,0,0,1-.37-1.34c0-.19,0-.29.14-.29a.13.13,0,0,1,.15,0,.2.2,0,0,1,.08.19,10.85,10.85,0,0,1,1.25,5,17.46,17.46,0,0,1-1,4.59l-.48,1a3.79,3.79,0,0,0-.41,1.18,3.6,3.6,0,0,1-.63.93,4.78,4.78,0,0,0-.63.85,10.53,10.53,0,0,1-1.77,2.14c-.2.25-.38.37-.52.37a1.21,1.21,0,0,1-.52-.22,2.57,2.57,0,0,1-.89-.85c-.25-.37-.44-.65-.59-.85-.15-.4-.42-1-.82-1.92a12.82,12.82,0,0,1-.81-2.37,4.14,4.14,0,0,1-.3-1.11,9.38,9.38,0,0,0-.14-1,1.59,1.59,0,0,0,0-.23q0-.15-.18,0a.43.43,0,0,0-.15.3,5.32,5.32,0,0,1-.63,1.66c-.32.57-.56,1-.71,1.37a3.9,3.9,0,0,1-.48.89c-.17.25-.33.5-.48.74a3.34,3.34,0,0,1-1,1.33c-.3.3-.45.47-.45.52a4.25,4.25,0,0,1-3.1,1.85c-.3.15-.62.05-1-.29l-1-.82-1.78-1.4a3,3,0,0,1-1.4-2.3c0-.49,0-1.34-.08-2.55s-.12-2.28-.22-3.22a1.77,1.77,0,0,1,.15-.81c.05-.5.07-1.26.07-2.3a33.8,33.8,0,0,0,.15-3.7,15.47,15.47,0,0,0,.07-1.77l.08-2.3c.09-2.07.14-3.62.14-4.66,0-.84,0-2.1-.14-3.77a6.62,6.62,0,0,1-.15-1.26,5.54,5.54,0,0,0-.07-.89c.09-.3,0-.52-.37-.67a2.44,2.44,0,0,0-.45-.14.53.53,0,0,1-.37-.23,1.81,1.81,0,0,0-.67-.22,1.24,1.24,0,0,0-1,.67,2.64,2.64,0,0,1-.74.74c0,.15-.12.15-.37,0a.43.43,0,0,1-.22-.37q0-.08.15-.15a1,1,0,0,0,.22-.15,23.79,23.79,0,0,1,2.44-3.11.83.83,0,0,0,.15-.22.83.83,0,0,1,.15-.22,1.16,1.16,0,0,1,.74-.22,9.19,9.19,0,0,0,1.47.55,5.17,5.17,0,0,1,1.34.56c.29.2.44.37.44.52l-.07.44a2,2,0,0,0-.15,1,15.5,15.5,0,0,0,.15,1.63,12.36,12.36,0,0,1,.15,1.7,36.74,36.74,0,0,1-.23,5.18l-.07,1.93c-.1,2.26-.12,4-.07,5.18a14.87,14.87,0,0,1-.23,2.88,17.08,17.08,0,0,1,.08,1.93c0,.24,0,.66,0,1.25a6.5,6.5,0,0,1-.11,1.63c0,.59-.07,1.53-.07,2.81a2.63,2.63,0,0,0,.74,1.11l.59.63a3.64,3.64,0,0,0,1,.78l1.4,1.33c.1.2.35.3.74.3a5.26,5.26,0,0,1,1.11-.3,1.62,1.62,0,0,1,.52.08.52.52,0,0,1,.19-.12c.07,0,.11-.06.11-.11A18.34,18.34,0,0,0,155,45a4.33,4.33,0,0,0,.23-1.4,6.45,6.45,0,0,0-.15-1.26L155,40.11l.08-5.48c0-2.27-.08-4.51-.22-6.73q0-1.41-.15-3.78V24a1.5,1.5,0,0,0-1-1.78,8.6,8.6,0,0,1-1.62-.67,1.22,1.22,0,0,0-1.11.15,2.61,2.61,0,0,0-.74.74,4.5,4.5,0,0,1-.52.67,1.45,1.45,0,0,0-.19.26.43.43,0,0,1-.4.18c-.3-.15-.25-.44.14-.89l1.11-1.33,2.22-2.66a.57.57,0,0,1,.67-.15,5.51,5.51,0,0,0,.59.15,2.64,2.64,0,0,1,.67.22L157,20.13a.81.81,0,0,1,.52.81c.1,1.78.15,3.16.15,4.15Z"/><path class="cls-2" d="M199.49,38.55a15.93,15.93,0,0,1-.6,4.15,9.3,9.3,0,0,1-1,2.07,30,30,0,0,1-2.22,3.63,8.75,8.75,0,0,1-2.88,3,10.84,10.84,0,0,0-1.48,1.18,1.36,1.36,0,0,1-1.11.37,15.64,15.64,0,0,1-1.78.15,5.11,5.11,0,0,1-2.07-.37,1.84,1.84,0,0,1-.67-.52,14.44,14.44,0,0,1-3.11-3.85c-.79-1.53-1.8-3.25-3-5.18a13.87,13.87,0,0,1-.85-1.37c-.32-.56-.56-1-.7-1.29a13.34,13.34,0,0,0-1.34-2.37c-.69-1.28-1.25-2.27-1.7-3a1.32,1.32,0,0,1-.26-.59q0-.3,0-.45a37.48,37.48,0,0,0-1.41,4.07c-.44,1.53-.84,3-1.18,4.52a23.6,23.6,0,0,0-.67,3.48l-.37,2.22a1.13,1.13,0,0,0,0,.81,1.17,1.17,0,0,1,.15.44,1.24,1.24,0,0,1-.45.82.57.57,0,0,0,.15.74c.05,0,.22.2.52.44a2,2,0,0,0,1,.45,3.56,3.56,0,0,1,1,.37c.4.1.59.29.59.59a.67.67,0,0,1-.29.52A4.8,4.8,0,0,1,172,55.13a6.42,6.42,0,0,1-.66.15,6,6,0,0,1-2.15-.59c-.4-.3-1.11-.77-2.15-1.41-.54-.3-.81-.54-.81-.74s.22-.54.67-.89A2.57,2.57,0,0,0,168,49.88a1.86,1.86,0,0,0-.23-.82v-.29a7.46,7.46,0,0,0,.15-1.71l-.07-2.66c0-1.18.05-3,.15-5.48l.07-2.73c0-.65.07-1.58.07-2.82V30.56c-.1-2.37-.14-4.14-.14-5.33s0-1.9.07-2.44q.07-2.22.07-6.66l.15-5.55a12.07,12.07,0,0,1,.08-1.48.66.66,0,0,0,.07-.37,1.16,1.16,0,0,0,.15-.52V7.62a.88.88,0,0,1,.22-.66,2.46,2.46,0,0,0,.63-.78,7,7,0,0,1,.41-.7l.51-.67a2.09,2.09,0,0,0,.52-.74A8.18,8.18,0,0,1,172.62,2a8.66,8.66,0,0,1,4.67-2h.37c2.91.64,4.63,2.1,5.18,4.37a4,4,0,0,1,.07.81l-.07.07h-.23L182.54,5A3.82,3.82,0,0,0,182,3.66l-.55-.85a5.34,5.34,0,0,0-3.63-1.7,6.26,6.26,0,0,0-2,.37,2.66,2.66,0,0,0-.78.33.84.84,0,0,0-.26.71c0,.14-.12.29-.37.44a2.28,2.28,0,0,0-1.48,1.26,4.43,4.43,0,0,0-1.63,3.48,2.79,2.79,0,0,1-.11.62,3.25,3.25,0,0,0-.11.78c0,.84-.06,1.61,0,2.3s0,1.28,0,1.77v2.07c0,.65-.07,1.66-.07,3a19.25,19.25,0,0,1-.08,2l-.07,2.14.07,1.41a12.35,12.35,0,0,1,.08,1.63,5.64,5.64,0,0,1-.15,1.48v.51c.05.6.07,1.53.07,2.82.05.54.08,1.38.08,2.51V36c-.1,1-.15,1.75-.15,2.29q0,.38,0,.93a8.16,8.16,0,0,1,0,1.37,3.32,3.32,0,0,0-.08.81,12.16,12.16,0,0,0,.15,1.63c0,.15,0,.22.08.22s.29.07.29-.22a13.15,13.15,0,0,0,.45-1.93,75.26,75.26,0,0,1,2.81-8.43,37.64,37.64,0,0,0,1.33-3.85,22,22,0,0,1,1.18-2.74c.15-.29.3-.63.45-1l.52-1.29a26.25,26.25,0,0,0,1.33-3c0-.34.1-.54.29-.59a18.41,18.41,0,0,1,1.93-1.92.72.72,0,0,1,.4-.19.49.49,0,0,1,.41.11l1.11,1a10,10,0,0,1,1.63,1.7,6.54,6.54,0,0,0,1.33,1.26.45.45,0,0,1,0,.67,5.12,5.12,0,0,1-.74,1c-.2.2-.46.47-.78.82a11,11,0,0,0-.85,1A14.87,14.87,0,0,1,182,28.16c-.84.76-1.33,1.22-1.48,1.37s-.58.61-1,1.11a4.84,4.84,0,0,1-1.3,1.11.8.8,0,0,0-.37.59,1.75,1.75,0,0,0,.23.74c.54.94.86,1.48,1,1.63,1.23,2.22,1.95,3.55,2.14,4,.55,1,1.24,2.22,2.08,3.55a31.92,31.92,0,0,1,2.51,4.07A11.07,11.07,0,0,0,189,50l2.14,1a.47.47,0,0,0,.6-.15,6.79,6.79,0,0,0,3.4-2.74q1.49-2.15,2.22-3.48a11.61,11.61,0,0,0,1.41-4.51,17.48,17.48,0,0,0,.14-1.78,13.18,13.18,0,0,0-.74-4.22,10.28,10.28,0,0,0-2.14-3.4,1.07,1.07,0,0,1-.67-.74h.15a.94.94,0,0,1,.7.26l.34.33A10.61,10.61,0,0,1,199,35.08,14.07,14.07,0,0,1,199.49,38.55Zm-19.84-9.1a27.92,27.92,0,0,0,3.11-3.77c.4-.4.59-.64.59-.74a.65.65,0,0,0-.18-.37c-.12-.15-.24-.27-.33-.37a3.31,3.31,0,0,0-.45-.74,7.22,7.22,0,0,0-2-2.07c-.29-.05-.47,0-.51.14a.35.35,0,0,0-.23.37l-.88,2c-.7,1.48-1.24,2.59-1.63,3.33l-.19.59a2.11,2.11,0,0,1-.26.6l-.88,2.51A27.59,27.59,0,0,1,174.7,34a.49.49,0,0,0,.44,0,1.64,1.64,0,0,0,.22-.18Q178.62,30.42,179.65,29.45Z"/></g></g></g></g></svg>